<svg width="1897" height="103" viewBox="0 0 1897 103" fill="none" xmlns="http://www.w3.org/2000/svg">
<path d="M1869.79 7.904C1871.41 9.09867 1873.42 10.208 1875.81 11.232C1878.2 12.256 1880.67 13.1093 1883.23 13.792C1885.71 14.56 1888.14 15.1573 1890.53 15.584C1892.83 16.0107 1894.75 16.224 1896.29 16.224C1895.61 17.3333 1895.01 18.8693 1894.5 20.832C1893.98 22.88 1893.6 25.056 1893.34 27.36C1893 29.7493 1892.79 32.1813 1892.7 34.656C1892.53 37.1307 1892.45 39.392 1892.45 41.44C1892.45 46.6453 1892.79 50.9547 1893.47 54.368C1894.07 57.8667 1894.67 60.5973 1895.26 62.56C1891.59 63.2427 1888.27 64.5653 1885.28 66.528C1882.21 68.4907 1879.18 70.9653 1876.19 73.952C1872.69 73.2693 1868.38 72.672 1863.26 72.16C1858.14 71.7333 1853.07 71.4347 1848.03 71.264C1848.29 69.728 1848.42 67.808 1848.42 65.504C1848.42 63.712 1848.33 61.7493 1848.16 59.616C1847.99 57.568 1847.78 55.52 1847.52 53.472C1847.26 51.424 1846.92 49.4613 1846.5 47.584C1846.07 45.7067 1845.6 44.0853 1845.09 42.72C1850.29 42.2933 1855.58 41.696 1860.96 40.928C1866.34 40.2453 1871.58 39.4773 1876.7 38.624C1876.79 36.1493 1876.96 33.7173 1877.22 31.328C1877.47 28.9387 1877.69 26.848 1877.86 25.056C1876.83 24.6293 1875.55 24.2453 1874.02 23.904C1872.39 23.5627 1870.69 23.2213 1868.9 22.88C1867.1 22.624 1865.35 22.368 1863.65 22.112C1861.94 21.9413 1860.49 21.8133 1859.3 21.728C1858.87 24.3733 1857.85 26.6347 1856.22 28.512C1854.52 30.3893 1851.66 31.9253 1847.65 33.12C1847.73 32.096 1847.78 31.072 1847.78 30.048C1847.78 29.1093 1847.78 28.1707 1847.78 27.232C1847.78 24.3307 1847.69 22.0267 1847.52 20.32C1847.26 18.6987 1846.84 17.0773 1846.24 15.456C1847.86 15.2853 1849.78 14.944 1852 14.432C1854.22 14.0053 1856.44 13.408 1858.66 12.64C1860.87 11.9573 1863.01 11.232 1865.06 10.464C1867.02 9.61067 1868.6 8.75733 1869.79 7.904ZM1877.98 62.432C1877.56 58.848 1877.26 55.6907 1877.09 52.96C1876.83 50.2293 1876.66 47.712 1876.58 45.408L1861.6 49.12C1862.03 50.8267 1862.41 52.6187 1862.75 54.496C1863.01 56.3733 1863.14 58.2933 1863.14 60.256C1865.1 60.256 1867.49 60.4267 1870.3 60.768C1873.03 61.1947 1875.59 61.7493 1877.98 62.432ZM1768.73 8.416C1771.2 10.208 1774.28 11.9147 1777.95 13.536C1781.62 15.1573 1785.41 16.4373 1789.34 17.376C1789.25 18.4 1789.17 19.552 1789.08 20.832C1789 22.1973 1788.95 23.5627 1788.95 24.928C1788.87 26.3787 1788.83 27.744 1788.83 29.024C1788.74 30.3893 1788.7 31.5413 1788.7 32.48C1788.7 40.2453 1789.3 46.7733 1790.49 52.064C1791.6 57.3547 1793.01 61.408 1794.71 64.224L1798.43 64.992V67.168C1796.98 67.3387 1795.23 67.6373 1793.18 68.064C1791.13 68.576 1789.12 69.1307 1787.16 69.728C1785.11 70.4107 1783.24 71.0933 1781.53 71.776C1779.82 72.544 1778.54 73.2693 1777.69 73.952C1775.64 70.9653 1774.23 66.0587 1773.47 59.232C1772.61 52.4053 1772.19 44.384 1772.19 35.168C1772.19 33.376 1772.19 31.5413 1772.19 29.664C1772.19 27.872 1772.23 25.9947 1772.31 24.032L1765.91 20.576H1765.15C1763.95 22.624 1762.93 25.184 1762.07 28.256C1761.14 31.4133 1760.37 34.6987 1759.77 38.112C1759.09 41.5253 1758.58 44.8533 1758.23 48.096C1757.89 51.424 1757.72 54.3253 1757.72 56.8C1757.72 60.2133 1758.11 62.7733 1758.87 64.48C1759.56 66.1867 1760.62 67.3813 1762.07 68.064L1761.95 70.112C1758.62 70.368 1755.25 70.7947 1751.83 71.392C1748.42 72.0747 1745.05 72.928 1741.72 73.952C1741.89 73.696 1741.98 73.3973 1741.98 73.056C1741.98 72.7147 1741.98 72.3307 1741.98 71.904C1741.98 69.1733 1741.81 66.5707 1741.47 64.096C1741.12 61.7067 1740.36 59.872 1739.16 58.592L1751.58 20.704L1767.45 8.416H1768.73ZM1702.28 73.952C1696.4 71.9893 1691.49 70.6667 1687.56 69.984C1683.64 69.3013 1680.01 68.96 1676.68 68.96C1674.81 68.96 1673.4 68.96 1672.46 68.96C1671.44 69.0453 1670.45 69.1733 1669.51 69.344C1670.54 63.7973 1671.05 57.2693 1671.05 49.76C1671.05 40.544 1670.28 31.584 1668.75 22.88C1670.88 22.624 1673.14 22.0693 1675.53 21.216C1677.92 20.3627 1680.31 19.296 1682.7 18.016C1685.09 16.736 1687.39 15.2427 1689.61 13.536C1691.83 11.9147 1693.84 10.208 1695.63 8.416C1696.57 9.184 1698.19 9.99467 1700.49 10.848C1702.8 11.616 1705.31 12.3413 1708.04 13.024C1710.77 13.7067 1713.5 14.2613 1716.24 14.688C1718.97 15.1147 1721.23 15.328 1723.02 15.328C1723.53 15.328 1724.04 15.2853 1724.56 15.2C1724.98 15.2 1725.41 15.1573 1725.84 15.072C1724.64 16.096 1723.79 18.1013 1723.28 21.088C1722.68 24.16 1722.38 28.128 1722.38 32.992C1722.38 35.4667 1722.46 38.1547 1722.64 41.056C1722.81 44.0427 1723.06 46.8587 1723.4 49.504C1723.66 52.1493 1723.96 54.4107 1724.3 56.288C1724.64 58.1653 1724.98 59.3173 1725.32 59.744C1722 60.3413 1718.28 61.8773 1714.19 64.352C1710.09 66.912 1706.12 70.112 1702.28 73.952ZM1686.92 57.696C1690.85 58.0373 1694.69 58.592 1698.44 59.36C1702.2 60.2133 1705.06 61.152 1707.02 62.176C1706.59 58.592 1706.29 55.2213 1706.12 52.064C1705.95 48.992 1705.87 45.8773 1705.87 42.72C1705.87 40.2453 1705.95 37.4293 1706.12 34.272C1706.21 31.2 1706.34 28.1707 1706.51 25.184C1703.61 24.8427 1700.41 24.3733 1696.91 23.776C1693.41 23.1787 1690.17 22.4107 1687.18 21.472L1686.92 57.696ZM1655.6 9.312C1653.38 10.4213 1651.71 12.256 1650.6 14.816C1649.49 17.376 1648.94 20.3627 1648.94 23.776V89.44C1648.94 91.5733 1648.98 93.4933 1649.07 95.2C1649.15 96.9067 1649.37 98.4853 1649.71 99.936C1649.96 101.387 1650.35 102.795 1650.86 104.16C1651.37 105.525 1652.01 106.933 1652.78 108.384C1651.07 107.787 1649.07 107.488 1646.76 107.488C1643.95 107.488 1641 107.957 1637.93 108.896C1634.77 109.835 1631.4 111.157 1627.82 112.864C1629.53 110.816 1630.72 108.085 1631.4 104.672C1632 101.259 1632.3 97.3333 1632.3 92.896V30.944C1632.3 27.4453 1632.17 24.544 1631.92 22.24C1631.66 19.936 1631.23 17.888 1630.64 16.096C1629.95 14.304 1629.01 12.5973 1627.82 10.976C1626.63 9.26933 1625.13 7.264 1623.34 4.96L1624.11 3.808C1626.41 4.91733 1628.33 5.81333 1629.87 6.496C1631.4 7.09333 1632.73 7.648 1633.84 8.16C1634.86 8.672 1635.8 9.22667 1636.65 9.824C1637.42 10.336 1638.23 11.0613 1639.08 12C1641.56 10.976 1644.25 10.1227 1647.15 9.44C1649.96 8.75733 1652.74 8.416 1655.47 8.416L1655.6 9.312ZM1614.45 68.704C1612.65 68.8747 1610.65 69.1307 1608.43 69.472C1606.21 69.8987 1603.99 70.368 1601.77 70.88C1599.56 71.392 1597.51 71.904 1595.63 72.416C1593.75 73.0133 1592.26 73.568 1591.15 74.08C1591.32 72.6293 1591.49 71.3067 1591.66 70.112C1591.75 68.9173 1591.83 67.6373 1591.92 66.272C1591.92 64.9067 1591.96 63.4133 1592.05 61.792C1592.05 60.1707 1592.05 58.2507 1592.05 56.032V30.176L1586.67 26.08L1574.38 31.456V51.424C1574.38 54.3253 1574.47 56.7147 1574.64 58.592C1574.72 60.4693 1574.98 61.9627 1575.41 63.072C1575.83 64.1813 1576.43 64.992 1577.2 65.504C1577.88 66.1013 1578.86 66.5707 1580.14 66.912V68.576C1576.05 68.832 1572.04 69.4293 1568.11 70.368C1564.1 71.3067 1560.64 72.5013 1557.74 73.952V43.744C1557.74 39.7333 1557.66 36.448 1557.49 33.888C1557.32 31.4133 1557.02 29.408 1556.59 27.872C1556.16 26.336 1555.61 25.2267 1554.93 24.544C1554.16 23.8613 1553.18 23.392 1551.98 23.136V21.728C1553.09 21.216 1554.33 20.448 1555.69 19.424C1557.06 18.4 1558.38 17.248 1559.66 15.968C1560.94 14.688 1562.09 13.3653 1563.12 12C1564.14 10.72 1564.91 9.52533 1565.42 8.416C1568.24 10.8053 1570.29 13.024 1571.57 15.072C1572.76 17.12 1573.57 19.6373 1574 22.624C1576.56 21.344 1578.82 20.1493 1580.78 19.04C1582.66 17.9307 1584.41 16.8213 1586.03 15.712C1587.57 14.6027 1589.02 13.4507 1590.38 12.256C1591.66 11.0613 1592.98 9.78133 1594.35 8.416C1596.06 9.952 1597.59 11.232 1598.96 12.256C1600.24 13.3653 1601.52 14.3467 1602.8 15.2C1603.99 16.0533 1605.23 16.8213 1606.51 17.504C1607.7 18.272 1609.07 19.0827 1610.61 19.936C1610.26 20.448 1609.97 21.6 1609.71 23.392C1609.37 25.184 1609.07 27.36 1608.81 29.92C1608.56 32.48 1608.39 35.2107 1608.3 38.112C1608.13 41.0987 1608.05 43.9573 1608.05 46.688C1608.05 49.76 1608.17 52.4053 1608.43 54.624C1608.6 56.928 1608.94 58.8907 1609.45 60.512C1609.97 62.1333 1610.65 63.456 1611.5 64.48C1612.27 65.5893 1613.29 66.528 1614.57 67.296L1614.45 68.704ZM1472.2 1.376C1471.69 3.08267 1471.22 5.216 1470.8 7.776C1470.37 10.2507 1470.03 12.7253 1469.77 15.2C1469.52 17.76 1469.3 20.1067 1469.13 22.24C1468.96 24.3733 1468.88 25.9093 1468.88 26.848C1468.88 31.712 1468.92 36.576 1469 41.44C1469 46.304 1469 51.168 1469 56.032L1470.67 57.824L1485 51.68C1485.09 49.8027 1485.13 47.328 1485.13 44.256C1485.13 41.184 1485.13 38.0693 1485.13 34.912V23.264C1485.13 17.888 1483.98 14.7733 1481.68 13.92V12L1504.46 12V13.92C1503.44 14.3467 1502.62 15.2 1502.03 16.48C1501.34 17.8453 1501 19.7227 1501 22.112V56.032L1502.67 57.824L1516.88 51.68V23.264C1516.88 17.888 1515.72 14.7733 1513.42 13.92V12H1536.97V13.92C1535.95 14.3467 1535.14 15.2 1534.54 16.48C1533.86 17.8453 1533.52 19.7227 1533.52 22.112V66.784L1538.25 68.832V70.24C1535.26 70.6667 1532.02 71.2213 1528.52 71.904C1525.02 72.672 1521.91 73.3973 1519.18 74.08L1516.88 70.24V59.744C1513.55 62.1333 1510.56 64.48 1507.92 66.784C1505.18 69.1733 1502.41 71.9893 1499.6 75.232C1498.14 73.8667 1496.82 72.6293 1495.63 71.52C1494.43 70.496 1493.24 69.5573 1492.04 68.704C1490.76 67.8507 1489.44 66.9973 1488.08 66.144C1486.71 65.376 1485.13 64.5653 1483.34 63.712L1484.11 60.256C1480.95 62.56 1478.09 64.864 1475.53 67.168C1472.97 69.472 1470.33 72.16 1467.6 75.232C1466.14 73.8667 1464.82 72.6293 1463.63 71.52C1462.43 70.496 1461.24 69.5573 1460.04 68.704C1458.76 67.8507 1457.44 66.9973 1456.08 66.144C1454.71 65.376 1453.13 64.5653 1451.34 63.712C1451.68 62.5173 1451.98 61.2373 1452.24 59.872C1452.41 58.592 1452.58 56.928 1452.75 54.88C1452.83 52.832 1452.92 50.3147 1453 47.328C1453.09 44.3413 1453.13 40.6293 1453.13 36.192C1453.13 32.4373 1453.13 29.3227 1453.13 26.848C1453.05 24.4587 1452.96 22.496 1452.88 20.96C1452.79 19.424 1452.66 18.144 1452.49 17.12C1452.32 16.1813 1452.15 15.2853 1451.98 14.432C1453.69 13.8347 1455.44 13.024 1457.23 12C1458.93 10.976 1460.68 9.824 1462.48 8.544C1464.18 7.264 1465.8 5.94133 1467.34 4.576C1468.88 3.21067 1470.24 1.888 1471.44 0.608L1472.2 1.376ZM1408.74 7.904C1410.36 9.09867 1412.37 10.208 1414.76 11.232C1417.15 12.256 1419.62 13.1093 1422.18 13.792C1424.66 14.56 1427.09 15.1573 1429.48 15.584C1431.78 16.0107 1433.7 16.224 1435.24 16.224C1434.56 17.3333 1433.96 18.8693 1433.45 20.832C1432.93 22.88 1432.55 25.056 1432.29 27.36C1431.95 29.7493 1431.74 32.1813 1431.65 34.656C1431.48 37.1307 1431.4 39.392 1431.4 41.44C1431.4 46.6453 1431.74 50.9547 1432.42 54.368C1433.02 57.8667 1433.62 60.5973 1434.21 62.56C1430.54 63.2427 1427.22 64.5653 1424.23 66.528C1421.16 68.4907 1418.13 70.9653 1415.14 73.952C1411.64 73.2693 1407.33 72.672 1402.21 72.16C1397.09 71.7333 1392.02 71.4347 1386.98 71.264C1387.24 69.728 1387.37 67.808 1387.37 65.504C1387.37 63.712 1387.28 61.7493 1387.11 59.616C1386.94 57.568 1386.73 55.52 1386.47 53.472C1386.21 51.424 1385.87 49.4613 1385.45 47.584C1385.02 45.7067 1384.55 44.0853 1384.04 42.72C1389.24 42.2933 1394.53 41.696 1399.91 40.928C1405.29 40.2453 1410.53 39.4773 1415.65 38.624C1415.74 36.1493 1415.91 33.7173 1416.17 31.328C1416.42 28.9387 1416.64 26.848 1416.81 25.056C1415.78 24.6293 1414.5 24.2453 1412.97 23.904C1411.34 23.5627 1409.64 23.2213 1407.85 22.88C1406.05 22.624 1404.3 22.368 1402.6 22.112C1400.89 21.9413 1399.44 21.8133 1398.25 21.728C1397.82 24.3733 1396.8 26.6347 1395.17 28.512C1393.47 30.3893 1390.61 31.9253 1386.6 33.12C1386.68 32.096 1386.73 31.072 1386.73 30.048C1386.73 29.1093 1386.73 28.1707 1386.73 27.232C1386.73 24.3307 1386.64 22.0267 1386.47 20.32C1386.21 18.6987 1385.79 17.0773 1385.19 15.456C1386.81 15.2853 1388.73 14.944 1390.95 14.432C1393.17 14.0053 1395.39 13.408 1397.61 12.64C1399.82 11.9573 1401.96 11.232 1404.01 10.464C1405.97 9.61067 1407.55 8.75733 1408.74 7.904ZM1416.93 62.432C1416.51 58.848 1416.21 55.6907 1416.04 52.96C1415.78 50.2293 1415.61 47.712 1415.53 45.408L1400.55 49.12C1400.98 50.8267 1401.36 52.6187 1401.7 54.496C1401.96 56.3733 1402.09 58.2933 1402.09 60.256C1404.05 60.256 1406.44 60.4267 1409.25 60.768C1411.98 61.1947 1414.54 61.7493 1416.93 62.432ZM1307.68 8.416C1310.15 10.208 1313.23 11.9147 1316.9 13.536C1320.57 15.1573 1324.36 16.4373 1328.29 17.376C1328.2 18.4 1328.12 19.552 1328.03 20.832C1327.95 22.1973 1327.9 23.5627 1327.9 24.928C1327.82 26.3787 1327.78 27.744 1327.78 29.024C1327.69 30.3893 1327.65 31.5413 1327.65 32.48C1327.65 40.2453 1328.25 46.7733 1329.44 52.064C1330.55 57.3547 1331.96 61.408 1333.66 64.224L1337.38 64.992V67.168C1335.93 67.3387 1334.18 67.6373 1332.13 68.064C1330.08 68.576 1328.07 69.1307 1326.11 69.728C1324.06 70.4107 1322.19 71.0933 1320.48 71.776C1318.77 72.544 1317.49 73.2693 1316.64 73.952C1314.59 70.9653 1313.18 66.0587 1312.42 59.232C1311.56 52.4053 1311.14 44.384 1311.14 35.168C1311.14 33.376 1311.14 31.5413 1311.14 29.664C1311.14 27.872 1311.18 25.9947 1311.26 24.032L1304.86 20.576H1304.1C1302.9 22.624 1301.88 25.184 1301.02 28.256C1300.09 31.4133 1299.32 34.6987 1298.72 38.112C1298.04 41.5253 1297.53 44.8533 1297.18 48.096C1296.84 51.424 1296.67 54.3253 1296.67 56.8C1296.67 60.2133 1297.06 62.7733 1297.82 64.48C1298.51 66.1867 1299.57 67.3813 1301.02 68.064L1300.9 70.112C1297.57 70.368 1294.2 70.7947 1290.78 71.392C1287.37 72.0747 1284 72.928 1280.67 73.952C1280.84 73.696 1280.93 73.3973 1280.93 73.056C1280.93 72.7147 1280.93 72.3307 1280.93 71.904C1280.93 69.1733 1280.76 66.5707 1280.42 64.096C1280.07 61.7067 1279.31 59.872 1278.11 58.592L1290.53 20.704L1306.4 8.416H1307.68ZM1241.23 73.952C1235.34 71.9893 1230.44 70.6667 1226.51 69.984C1222.59 69.3013 1218.96 68.96 1215.63 68.96C1213.76 68.96 1212.35 68.96 1211.41 68.96C1210.38 69.0453 1209.4 69.1733 1208.46 69.344C1209.49 63.7973 1210 57.2693 1210 49.76C1210 40.544 1209.23 31.584 1207.7 22.88C1209.83 22.624 1212.09 22.0693 1214.48 21.216C1216.87 20.3627 1219.26 19.296 1221.65 18.016C1224.04 16.736 1226.34 15.2427 1228.56 13.536C1230.78 11.9147 1232.78 10.208 1234.58 8.416C1235.52 9.184 1237.14 9.99467 1239.44 10.848C1241.74 11.616 1244.26 12.3413 1246.99 13.024C1249.72 13.7067 1252.45 14.2613 1255.18 14.688C1257.92 15.1147 1260.18 15.328 1261.97 15.328C1262.48 15.328 1262.99 15.2853 1263.5 15.2C1263.93 15.2 1264.36 15.1573 1264.78 15.072C1263.59 16.096 1262.74 18.1013 1262.22 21.088C1261.63 24.16 1261.33 28.128 1261.33 32.992C1261.33 35.4667 1261.41 38.1547 1261.58 41.056C1261.76 44.0427 1262.01 46.8587 1262.35 49.504C1262.61 52.1493 1262.91 54.4107 1263.25 56.288C1263.59 58.1653 1263.93 59.3173 1264.27 59.744C1260.94 60.3413 1257.23 61.8773 1253.14 64.352C1249.04 66.912 1245.07 70.112 1241.23 73.952ZM1225.87 57.696C1229.8 58.0373 1233.64 58.592 1237.39 59.36C1241.15 60.2133 1244.01 61.152 1245.97 62.176C1245.54 58.592 1245.24 55.2213 1245.07 52.064C1244.9 48.992 1244.82 45.8773 1244.82 42.72C1244.82 40.2453 1244.9 37.4293 1245.07 34.272C1245.16 31.2 1245.29 28.1707 1245.46 25.184C1242.56 24.8427 1239.36 24.3733 1235.86 23.776C1232.36 23.1787 1229.12 22.4107 1226.13 21.472L1225.87 57.696ZM1194.55 9.312C1192.33 10.4213 1190.66 12.256 1189.55 14.816C1188.44 17.376 1187.89 20.3627 1187.89 23.776V89.44C1187.89 91.5733 1187.93 93.4933 1188.02 95.2C1188.1 96.9067 1188.32 98.4853 1188.66 99.936C1188.91 101.387 1189.3 102.795 1189.81 104.16C1190.32 105.525 1190.96 106.933 1191.73 108.384C1190.02 107.787 1188.02 107.488 1185.71 107.488C1182.9 107.488 1179.95 107.957 1176.88 108.896C1173.72 109.835 1170.35 111.157 1166.77 112.864C1168.48 110.816 1169.67 108.085 1170.35 104.672C1170.95 101.259 1171.25 97.3333 1171.25 92.896V30.944C1171.25 27.4453 1171.12 24.544 1170.87 22.24C1170.61 19.936 1170.18 17.888 1169.59 16.096C1168.9 14.304 1167.96 12.5973 1166.77 10.976C1165.58 9.26933 1164.08 7.264 1162.29 4.96L1163.06 3.808C1165.36 4.91733 1167.28 5.81333 1168.82 6.496C1170.35 7.09333 1171.68 7.648 1172.79 8.16C1173.81 8.672 1174.75 9.22667 1175.6 9.824C1176.37 10.336 1177.18 11.0613 1178.03 12C1180.51 10.976 1183.2 10.1227 1186.1 9.44C1188.91 8.75733 1191.69 8.416 1194.42 8.416L1194.55 9.312ZM1153.4 68.704C1151.6 68.8747 1149.6 69.1307 1147.38 69.472C1145.16 69.8987 1142.94 70.368 1140.72 70.88C1138.51 71.392 1136.46 71.904 1134.58 72.416C1132.7 73.0133 1131.21 73.568 1130.1 74.08C1130.27 72.6293 1130.44 71.3067 1130.61 70.112C1130.7 68.9173 1130.78 67.6373 1130.87 66.272C1130.87 64.9067 1130.91 63.4133 1131 61.792C1131 60.1707 1131 58.2507 1131 56.032V30.176L1125.62 26.08L1113.33 31.456V51.424C1113.33 54.3253 1113.42 56.7147 1113.59 58.592C1113.67 60.4693 1113.93 61.9627 1114.36 63.072C1114.78 64.1813 1115.38 64.992 1116.15 65.504C1116.83 66.1013 1117.81 66.5707 1119.09 66.912V68.576C1115 68.832 1110.99 69.4293 1107.06 70.368C1103.05 71.3067 1099.59 72.5013 1096.69 73.952V43.744C1096.69 39.7333 1096.61 36.448 1096.44 33.888C1096.27 31.4133 1095.97 29.408 1095.54 27.872C1095.11 26.336 1094.56 25.2267 1093.88 24.544C1093.11 23.8613 1092.13 23.392 1090.93 23.136V21.728C1092.04 21.216 1093.28 20.448 1094.64 19.424C1096.01 18.4 1097.33 17.248 1098.61 15.968C1099.89 14.688 1101.04 13.3653 1102.07 12C1103.09 10.72 1103.86 9.52533 1104.37 8.416C1107.19 10.8053 1109.24 13.024 1110.52 15.072C1111.71 17.12 1112.52 19.6373 1112.95 22.624C1115.51 21.344 1117.77 20.1493 1119.73 19.04C1121.61 17.9307 1123.36 16.8213 1124.98 15.712C1126.52 14.6027 1127.97 13.4507 1129.33 12.256C1130.61 11.0613 1131.93 9.78133 1133.3 8.416C1135.01 9.952 1136.54 11.232 1137.91 12.256C1139.19 13.3653 1140.47 14.3467 1141.75 15.2C1142.94 16.0533 1144.18 16.8213 1145.46 17.504C1146.65 18.272 1148.02 19.0827 1149.56 19.936C1149.21 20.448 1148.92 21.6 1148.66 23.392C1148.32 25.184 1148.02 27.36 1147.76 29.92C1147.51 32.48 1147.34 35.2107 1147.25 38.112C1147.08 41.0987 1147 43.9573 1147 46.688C1147 49.76 1147.12 52.4053 1147.38 54.624C1147.55 56.928 1147.89 58.8907 1148.4 60.512C1148.92 62.1333 1149.6 63.456 1150.45 64.48C1151.22 65.5893 1152.24 66.528 1153.52 67.296L1153.4 68.704ZM1011.15 1.376C1010.64 3.08267 1010.17 5.216 1009.74 7.776C1009.32 10.2507 1008.98 12.7253 1008.72 15.2C1008.46 17.76 1008.25 20.1067 1008.08 22.24C1007.91 24.3733 1007.82 25.9093 1007.82 26.848C1007.82 31.712 1007.87 36.576 1007.95 41.44C1007.95 46.304 1007.95 51.168 1007.95 56.032L1009.62 57.824L1023.95 51.68C1024.04 49.8027 1024.08 47.328 1024.08 44.256C1024.08 41.184 1024.08 38.0693 1024.08 34.912V23.264C1024.08 17.888 1022.93 14.7733 1020.62 13.92V12L1043.41 12V13.92C1042.38 14.3467 1041.57 15.2 1040.98 16.48C1040.29 17.8453 1039.95 19.7227 1039.95 22.112V56.032L1041.62 57.824L1055.82 51.68V23.264C1055.82 17.888 1054.67 14.7733 1052.37 13.92V12H1075.92V13.92C1074.9 14.3467 1074.09 15.2 1073.49 16.48C1072.81 17.8453 1072.46 19.7227 1072.46 22.112V66.784L1077.2 68.832V70.24C1074.21 70.6667 1070.97 71.2213 1067.47 71.904C1063.97 72.672 1060.86 73.3973 1058.13 74.08L1055.82 70.24V59.744C1052.5 62.1333 1049.51 64.48 1046.86 66.784C1044.13 69.1733 1041.36 71.9893 1038.54 75.232C1037.09 73.8667 1035.77 72.6293 1034.58 71.52C1033.38 70.496 1032.19 69.5573 1030.99 68.704C1029.71 67.8507 1028.39 66.9973 1027.02 66.144C1025.66 65.376 1024.08 64.5653 1022.29 63.712L1023.06 60.256C1019.9 62.56 1017.04 64.864 1014.48 67.168C1011.92 69.472 1009.28 72.16 1006.54 75.232C1005.09 73.8667 1003.77 72.6293 1002.58 71.52C1001.38 70.496 1000.19 69.5573 998.993 68.704C997.713 67.8507 996.39 66.9973 995.025 66.144C993.66 65.376 992.081 64.5653 990.289 63.712C990.63 62.5173 990.929 61.2373 991.185 59.872C991.356 58.592 991.526 56.928 991.697 54.88C991.782 52.832 991.868 50.3147 991.953 47.328C992.038 44.3413 992.081 40.6293 992.081 36.192C992.081 32.4373 992.081 29.3227 992.081 26.848C991.996 24.4587 991.91 22.496 991.825 20.96C991.74 19.424 991.612 18.144 991.441 17.12C991.27 16.1813 991.1 15.2853 990.929 14.432C992.636 13.8347 994.385 13.024 996.177 12C997.884 10.976 999.633 9.824 1001.42 8.544C1003.13 7.264 1004.75 5.94133 1006.29 4.576C1007.82 3.21067 1009.19 1.888 1010.38 0.608L1011.15 1.376ZM947.692 7.904C949.313 9.09867 951.319 10.208 953.708 11.232C956.097 12.256 958.572 13.1093 961.132 13.792C963.607 14.56 966.039 15.1573 968.428 15.584C970.732 16.0107 972.652 16.224 974.188 16.224C973.505 17.3333 972.908 18.8693 972.396 20.832C971.884 22.88 971.5 25.056 971.244 27.36C970.903 29.7493 970.689 32.1813 970.604 34.656C970.433 37.1307 970.348 39.392 970.348 41.44C970.348 46.6453 970.689 50.9547 971.372 54.368C971.969 57.8667 972.567 60.5973 973.164 62.56C969.495 63.2427 966.167 64.5653 963.18 66.528C960.108 68.4907 957.079 70.9653 954.092 73.952C950.593 73.2693 946.284 72.672 941.164 72.16C936.044 71.7333 930.967 71.4347 925.932 71.264C926.188 69.728 926.316 67.808 926.316 65.504C926.316 63.712 926.231 61.7493 926.06 59.616C925.889 57.568 925.676 55.52 925.42 53.472C925.164 51.424 924.823 49.4613 924.396 47.584C923.969 45.7067 923.5 44.0853 922.988 42.72C928.193 42.2933 933.484 41.696 938.86 40.928C944.236 40.2453 949.484 39.4773 954.604 38.624C954.689 36.1493 954.86 33.7173 955.116 31.328C955.372 28.9387 955.585 26.848 955.756 25.056C954.732 24.6293 953.452 24.2453 951.916 23.904C950.295 23.5627 948.588 23.2213 946.796 22.88C945.004 22.624 943.255 22.368 941.548 22.112C939.841 21.9413 938.391 21.8133 937.196 21.728C936.769 24.3733 935.745 26.6347 934.124 28.512C932.417 30.3893 929.559 31.9253 925.548 33.12C925.633 32.096 925.676 31.072 925.676 30.048C925.676 29.1093 925.676 28.1707 925.676 27.232C925.676 24.3307 925.591 22.0267 925.42 20.32C925.164 18.6987 924.737 17.0773 924.14 15.456C925.761 15.2853 927.681 14.944 929.9 14.432C932.119 14.0053 934.337 13.408 936.556 12.64C938.775 11.9573 940.908 11.232 942.956 10.464C944.919 9.61067 946.497 8.75733 947.692 7.904ZM955.884 62.432C955.457 58.848 955.159 55.6907 954.988 52.96C954.732 50.2293 954.561 47.712 954.476 45.408L939.5 49.12C939.927 50.8267 940.311 52.6187 940.652 54.496C940.908 56.3733 941.036 58.2933 941.036 60.256C942.999 60.256 945.388 60.4267 948.204 60.768C950.935 61.1947 953.495 61.7493 955.884 62.432ZM846.63 8.416C849.105 10.208 852.177 11.9147 855.846 13.536C859.515 15.1573 863.313 16.4373 867.238 17.376C867.153 18.4 867.067 19.552 866.982 20.832C866.897 22.1973 866.854 23.5627 866.854 24.928C866.769 26.3787 866.726 27.744 866.726 29.024C866.641 30.3893 866.598 31.5413 866.598 32.48C866.598 40.2453 867.195 46.7733 868.39 52.064C869.499 57.3547 870.907 61.408 872.614 64.224L876.326 64.992V67.168C874.875 67.3387 873.126 67.6373 871.078 68.064C869.03 68.576 867.025 69.1307 865.062 69.728C863.014 70.4107 861.137 71.0933 859.43 71.776C857.723 72.544 856.443 73.2693 855.59 73.952C853.542 70.9653 852.134 66.0587 851.366 59.232C850.513 52.4053 850.086 44.384 850.086 35.168C850.086 33.376 850.086 31.5413 850.086 29.664C850.086 27.872 850.129 25.9947 850.214 24.032L843.814 20.576H843.046C841.851 22.624 840.827 25.184 839.974 28.256C839.035 31.4133 838.267 34.6987 837.67 38.112C836.987 41.5253 836.475 44.8533 836.134 48.096C835.793 51.424 835.622 54.3253 835.622 56.8C835.622 60.2133 836.006 62.7733 836.774 64.48C837.457 66.1867 838.523 67.3813 839.974 68.064L839.846 70.112C836.518 70.368 833.147 70.7947 829.734 71.392C826.321 72.0747 822.95 72.928 819.622 73.952C819.793 73.696 819.878 73.3973 819.878 73.056C819.878 72.7147 819.878 72.3307 819.878 71.904C819.878 69.1733 819.707 66.5707 819.366 64.096C819.025 61.7067 818.257 59.872 817.062 58.592L829.478 20.704L845.35 8.416H846.63ZM780.183 73.952C774.295 71.9893 769.388 70.6667 765.463 69.984C761.538 69.3013 757.911 68.96 754.583 68.96C752.706 68.96 751.298 68.96 750.359 68.96C749.335 69.0453 748.354 69.1733 747.415 69.344C748.439 63.7973 748.951 57.2693 748.951 49.76C748.951 40.544 748.183 31.584 746.647 22.88C748.78 22.624 751.042 22.0693 753.431 21.216C755.82 20.3627 758.21 19.296 760.599 18.016C762.988 16.736 765.292 15.2427 767.511 13.536C769.73 11.9147 771.735 10.208 773.527 8.416C774.466 9.184 776.087 9.99467 778.391 10.848C780.695 11.616 783.212 12.3413 785.943 13.024C788.674 13.7067 791.404 14.2613 794.135 14.688C796.866 15.1147 799.127 15.328 800.919 15.328C801.431 15.328 801.943 15.2853 802.455 15.2C802.882 15.2 803.308 15.1573 803.735 15.072C802.54 16.096 801.687 18.1013 801.175 21.088C800.578 24.16 800.279 28.128 800.279 32.992C800.279 35.4667 800.364 38.1547 800.535 41.056C800.706 44.0427 800.962 46.8587 801.303 49.504C801.559 52.1493 801.858 54.4107 802.199 56.288C802.54 58.1653 802.882 59.3173 803.223 59.744C799.895 60.3413 796.183 61.8773 792.087 64.352C787.991 66.912 784.023 70.112 780.183 73.952ZM764.823 57.696C768.748 58.0373 772.588 58.592 776.343 59.36C780.098 60.2133 782.956 61.152 784.919 62.176C784.492 58.592 784.194 55.2213 784.023 52.064C783.852 48.992 783.767 45.8773 783.767 42.72C783.767 40.2453 783.852 37.4293 784.023 34.272C784.108 31.2 784.236 28.1707 784.407 25.184C781.506 24.8427 778.306 24.3733 774.807 23.776C771.308 23.1787 768.066 22.4107 765.079 21.472L764.823 57.696ZM733.496 9.312C731.277 10.4213 729.613 12.256 728.504 14.816C727.395 17.376 726.84 20.3627 726.84 23.776V89.44C726.84 91.5733 726.883 93.4933 726.968 95.2C727.053 96.9067 727.267 98.4853 727.608 99.936C727.864 101.387 728.248 102.795 728.76 104.16C729.272 105.525 729.912 106.933 730.68 108.384C728.973 107.787 726.968 107.488 724.664 107.488C721.848 107.488 718.904 107.957 715.832 108.896C712.675 109.835 709.304 111.157 705.72 112.864C707.427 110.816 708.621 108.085 709.304 104.672C709.901 101.259 710.2 97.3333 710.2 92.896V30.944C710.2 27.4453 710.072 24.544 709.816 22.24C709.56 19.936 709.133 17.888 708.536 16.096C707.853 14.304 706.915 12.5973 705.72 10.976C704.525 9.26933 703.032 7.264 701.24 4.96L702.008 3.808C704.312 4.91733 706.232 5.81333 707.768 6.496C709.304 7.09333 710.627 7.648 711.736 8.16C712.76 8.672 713.699 9.22667 714.552 9.824C715.32 10.336 716.131 11.0613 716.984 12C719.459 10.976 722.147 10.1227 725.048 9.44C727.864 8.75733 730.637 8.416 733.368 8.416L733.496 9.312ZM692.346 68.704C690.554 68.8747 688.549 69.1307 686.33 69.472C684.111 69.8987 681.893 70.368 679.674 70.88C677.455 71.392 675.407 71.904 673.53 72.416C671.653 73.0133 670.159 73.568 669.05 74.08C669.221 72.6293 669.391 71.3067 669.562 70.112C669.647 68.9173 669.733 67.6373 669.818 66.272C669.818 64.9067 669.861 63.4133 669.946 61.792C669.946 60.1707 669.946 58.2507 669.946 56.032V30.176L664.57 26.08L652.282 31.456V51.424C652.282 54.3253 652.367 56.7147 652.538 58.592C652.623 60.4693 652.879 61.9627 653.306 63.072C653.733 64.1813 654.33 64.992 655.098 65.504C655.781 66.1013 656.762 66.5707 658.042 66.912V68.576C653.946 68.832 649.935 69.4293 646.01 70.368C641.999 71.3067 638.543 72.5013 635.642 73.952V43.744C635.642 39.7333 635.557 36.448 635.386 33.888C635.215 31.4133 634.917 29.408 634.49 27.872C634.063 26.336 633.509 25.2267 632.826 24.544C632.058 23.8613 631.077 23.392 629.882 23.136V21.728C630.991 21.216 632.229 20.448 633.594 19.424C634.959 18.4 636.282 17.248 637.562 15.968C638.842 14.688 639.994 13.3653 641.018 12C642.042 10.72 642.81 9.52533 643.322 8.416C646.138 10.8053 648.186 13.024 649.466 15.072C650.661 17.12 651.471 19.6373 651.898 22.624C654.458 21.344 656.719 20.1493 658.682 19.04C660.559 17.9307 662.309 16.8213 663.93 15.712C665.466 14.6027 666.917 13.4507 668.282 12.256C669.562 11.0613 670.885 9.78133 672.25 8.416C673.957 9.952 675.493 11.232 676.858 12.256C678.138 13.3653 679.418 14.3467 680.698 15.2C681.893 16.0533 683.13 16.8213 684.41 17.504C685.605 18.272 686.97 19.0827 688.506 19.936C688.165 20.448 687.866 21.6 687.61 23.392C687.269 25.184 686.97 27.36 686.714 29.92C686.458 32.48 686.287 35.2107 686.202 38.112C686.031 41.0987 685.946 43.9573 685.946 46.688C685.946 49.76 686.074 52.4053 686.33 54.624C686.501 56.928 686.842 58.8907 687.354 60.512C687.866 62.1333 688.549 63.456 689.402 64.48C690.17 65.5893 691.194 66.528 692.474 67.296L692.346 68.704ZM550.103 1.376C549.591 3.08267 549.122 5.216 548.695 7.776C548.268 10.2507 547.927 12.7253 547.671 15.2C547.415 17.76 547.202 20.1067 547.031 22.24C546.86 24.3733 546.775 25.9093 546.775 26.848C546.775 31.712 546.818 36.576 546.903 41.44C546.903 46.304 546.903 51.168 546.903 56.032L548.567 57.824L562.903 51.68C562.988 49.8027 563.031 47.328 563.031 44.256C563.031 41.184 563.031 38.0693 563.031 34.912V23.264C563.031 17.888 561.879 14.7733 559.575 13.92V12L582.359 12V13.92C581.335 14.3467 580.524 15.2 579.927 16.48C579.244 17.8453 578.903 19.7227 578.903 22.112V56.032L580.567 57.824L594.775 51.68V23.264C594.775 17.888 593.623 14.7733 591.319 13.92V12H614.871V13.92C613.847 14.3467 613.036 15.2 612.439 16.48C611.756 17.8453 611.415 19.7227 611.415 22.112V66.784L616.151 68.832V70.24C613.164 70.6667 609.922 71.2213 606.423 71.904C602.924 72.672 599.81 73.3973 597.079 74.08L594.775 70.24V59.744C591.447 62.1333 588.46 64.48 585.815 66.784C583.084 69.1733 580.311 71.9893 577.495 75.232C576.044 73.8667 574.722 72.6293 573.527 71.52C572.332 70.496 571.138 69.5573 569.943 68.704C568.663 67.8507 567.34 66.9973 565.975 66.144C564.61 65.376 563.031 64.5653 561.239 63.712L562.007 60.256C558.85 62.56 555.991 64.864 553.431 67.168C550.871 69.472 548.226 72.16 545.495 75.232C544.044 73.8667 542.722 72.6293 541.527 71.52C540.332 70.496 539.138 69.5573 537.943 68.704C536.663 67.8507 535.34 66.9973 533.975 66.144C532.61 65.376 531.031 64.5653 529.239 63.712C529.58 62.5173 529.879 61.2373 530.135 59.872C530.306 58.592 530.476 56.928 530.647 54.88C530.732 52.832 530.818 50.3147 530.903 47.328C530.988 44.3413 531.031 40.6293 531.031 36.192C531.031 32.4373 531.031 29.3227 531.031 26.848C530.946 24.4587 530.86 22.496 530.775 20.96C530.69 19.424 530.562 18.144 530.391 17.12C530.22 16.1813 530.05 15.2853 529.879 14.432C531.586 13.8347 533.335 13.024 535.127 12C536.834 10.976 538.583 9.824 540.375 8.544C542.082 7.264 543.703 5.94133 545.239 4.576C546.775 3.21067 548.14 1.888 549.335 0.608L550.103 1.376ZM486.642 7.904C488.263 9.09867 490.269 10.208 492.658 11.232C495.047 12.256 497.522 13.1093 500.082 13.792C502.557 14.56 504.989 15.1573 507.378 15.584C509.682 16.0107 511.602 16.224 513.138 16.224C512.455 17.3333 511.858 18.8693 511.346 20.832C510.834 22.88 510.45 25.056 510.194 27.36C509.853 29.7493 509.639 32.1813 509.554 34.656C509.383 37.1307 509.298 39.392 509.298 41.44C509.298 46.6453 509.639 50.9547 510.322 54.368C510.919 57.8667 511.517 60.5973 512.114 62.56C508.445 63.2427 505.117 64.5653 502.13 66.528C499.058 68.4907 496.029 70.9653 493.042 73.952C489.543 73.2693 485.234 72.672 480.114 72.16C474.994 71.7333 469.917 71.4347 464.882 71.264C465.138 69.728 465.266 67.808 465.266 65.504C465.266 63.712 465.181 61.7493 465.01 59.616C464.839 57.568 464.626 55.52 464.37 53.472C464.114 51.424 463.773 49.4613 463.346 47.584C462.919 45.7067 462.45 44.0853 461.938 42.72C467.143 42.2933 472.434 41.696 477.81 40.928C483.186 40.2453 488.434 39.4773 493.554 38.624C493.639 36.1493 493.81 33.7173 494.066 31.328C494.322 28.9387 494.535 26.848 494.706 25.056C493.682 24.6293 492.402 24.2453 490.866 23.904C489.245 23.5627 487.538 23.2213 485.746 22.88C483.954 22.624 482.205 22.368 480.498 22.112C478.791 21.9413 477.341 21.8133 476.146 21.728C475.719 24.3733 474.695 26.6347 473.074 28.512C471.367 30.3893 468.509 31.9253 464.498 33.12C464.583 32.096 464.626 31.072 464.626 30.048C464.626 29.1093 464.626 28.1707 464.626 27.232C464.626 24.3307 464.541 22.0267 464.37 20.32C464.114 18.6987 463.687 17.0773 463.09 15.456C464.711 15.2853 466.631 14.944 468.85 14.432C471.069 14.0053 473.287 13.408 475.506 12.64C477.725 11.9573 479.858 11.232 481.906 10.464C483.869 9.61067 485.447 8.75733 486.642 7.904ZM494.834 62.432C494.407 58.848 494.109 55.6907 493.938 52.96C493.682 50.2293 493.511 47.712 493.426 45.408L478.45 49.12C478.877 50.8267 479.261 52.6187 479.602 54.496C479.858 56.3733 479.986 58.2933 479.986 60.256C481.949 60.256 484.338 60.4267 487.154 60.768C489.885 61.1947 492.445 61.7493 494.834 62.432ZM385.58 8.416C388.055 10.208 391.127 11.9147 394.796 13.536C398.465 15.1573 402.263 16.4373 406.188 17.376C406.103 18.4 406.017 19.552 405.932 20.832C405.847 22.1973 405.804 23.5627 405.804 24.928C405.719 26.3787 405.676 27.744 405.676 29.024C405.591 30.3893 405.548 31.5413 405.548 32.48C405.548 40.2453 406.145 46.7733 407.34 52.064C408.449 57.3547 409.857 61.408 411.564 64.224L415.276 64.992V67.168C413.825 67.3387 412.076 67.6373 410.028 68.064C407.98 68.576 405.975 69.1307 404.012 69.728C401.964 70.4107 400.087 71.0933 398.38 71.776C396.673 72.544 395.393 73.2693 394.54 73.952C392.492 70.9653 391.084 66.0587 390.316 59.232C389.463 52.4053 389.036 44.384 389.036 35.168C389.036 33.376 389.036 31.5413 389.036 29.664C389.036 27.872 389.079 25.9947 389.164 24.032L382.764 20.576H381.996C380.801 22.624 379.777 25.184 378.924 28.256C377.985 31.4133 377.217 34.6987 376.62 38.112C375.937 41.5253 375.425 44.8533 375.084 48.096C374.743 51.424 374.572 54.3253 374.572 56.8C374.572 60.2133 374.956 62.7733 375.724 64.48C376.407 66.1867 377.473 67.3813 378.924 68.064L378.796 70.112C375.468 70.368 372.097 70.7947 368.684 71.392C365.271 72.0747 361.9 72.928 358.572 73.952C358.743 73.696 358.828 73.3973 358.828 73.056C358.828 72.7147 358.828 72.3307 358.828 71.904C358.828 69.1733 358.657 66.5707 358.316 64.096C357.975 61.7067 357.207 59.872 356.012 58.592L368.428 20.704L384.3 8.416H385.58ZM319.133 73.952C313.245 71.9893 308.338 70.6667 304.413 69.984C300.488 69.3013 296.861 68.96 293.533 68.96C291.656 68.96 290.248 68.96 289.309 68.96C288.285 69.0453 287.304 69.1733 286.365 69.344C287.389 63.7973 287.901 57.2693 287.901 49.76C287.901 40.544 287.133 31.584 285.597 22.88C287.73 22.624 289.992 22.0693 292.381 21.216C294.77 20.3627 297.16 19.296 299.549 18.016C301.938 16.736 304.242 15.2427 306.461 13.536C308.68 11.9147 310.685 10.208 312.477 8.416C313.416 9.184 315.037 9.99467 317.341 10.848C319.645 11.616 322.162 12.3413 324.893 13.024C327.624 13.7067 330.354 14.2613 333.085 14.688C335.816 15.1147 338.077 15.328 339.869 15.328C340.381 15.328 340.893 15.2853 341.405 15.2C341.832 15.2 342.258 15.1573 342.685 15.072C341.49 16.096 340.637 18.1013 340.125 21.088C339.528 24.16 339.229 28.128 339.229 32.992C339.229 35.4667 339.314 38.1547 339.485 41.056C339.656 44.0427 339.912 46.8587 340.253 49.504C340.509 52.1493 340.808 54.4107 341.149 56.288C341.49 58.1653 341.832 59.3173 342.173 59.744C338.845 60.3413 335.133 61.8773 331.037 64.352C326.941 66.912 322.973 70.112 319.133 73.952ZM303.773 57.696C307.698 58.0373 311.538 58.592 315.293 59.36C319.048 60.2133 321.906 61.152 323.869 62.176C323.442 58.592 323.144 55.2213 322.973 52.064C322.802 48.992 322.717 45.8773 322.717 42.72C322.717 40.2453 322.802 37.4293 322.973 34.272C323.058 31.2 323.186 28.1707 323.357 25.184C320.456 24.8427 317.256 24.3733 313.757 23.776C310.258 23.1787 307.016 22.4107 304.029 21.472L303.773 57.696ZM272.446 9.312C270.227 10.4213 268.563 12.256 267.454 14.816C266.345 17.376 265.79 20.3627 265.79 23.776V89.44C265.79 91.5733 265.833 93.4933 265.918 95.2C266.003 96.9067 266.217 98.4853 266.558 99.936C266.814 101.387 267.198 102.795 267.71 104.16C268.222 105.525 268.862 106.933 269.63 108.384C267.923 107.787 265.918 107.488 263.614 107.488C260.798 107.488 257.854 107.957 254.782 108.896C251.625 109.835 248.254 111.157 244.67 112.864C246.377 110.816 247.571 108.085 248.254 104.672C248.851 101.259 249.15 97.3333 249.15 92.896V30.944C249.15 27.4453 249.022 24.544 248.766 22.24C248.51 19.936 248.083 17.888 247.486 16.096C246.803 14.304 245.865 12.5973 244.67 10.976C243.475 9.26933 241.982 7.264 240.19 4.96L240.958 3.808C243.262 4.91733 245.182 5.81333 246.718 6.496C248.254 7.09333 249.577 7.648 250.686 8.16C251.71 8.672 252.649 9.22667 253.502 9.824C254.27 10.336 255.081 11.0613 255.934 12C258.409 10.976 261.097 10.1227 263.998 9.44C266.814 8.75733 269.587 8.416 272.318 8.416L272.446 9.312ZM231.296 68.704C229.504 68.8747 227.499 69.1307 225.28 69.472C223.061 69.8987 220.843 70.368 218.624 70.88C216.405 71.392 214.357 71.904 212.48 72.416C210.603 73.0133 209.109 73.568 208 74.08C208.171 72.6293 208.341 71.3067 208.512 70.112C208.597 68.9173 208.683 67.6373 208.768 66.272C208.768 64.9067 208.811 63.4133 208.896 61.792C208.896 60.1707 208.896 58.2507 208.896 56.032V30.176L203.52 26.08L191.232 31.456V51.424C191.232 54.3253 191.317 56.7147 191.488 58.592C191.573 60.4693 191.829 61.9627 192.256 63.072C192.683 64.1813 193.28 64.992 194.048 65.504C194.731 66.1013 195.712 66.5707 196.992 66.912V68.576C192.896 68.832 188.885 69.4293 184.96 70.368C180.949 71.3067 177.493 72.5013 174.592 73.952V43.744C174.592 39.7333 174.507 36.448 174.336 33.888C174.165 31.4133 173.867 29.408 173.44 27.872C173.013 26.336 172.459 25.2267 171.776 24.544C171.008 23.8613 170.027 23.392 168.832 23.136V21.728C169.941 21.216 171.179 20.448 172.544 19.424C173.909 18.4 175.232 17.248 176.512 15.968C177.792 14.688 178.944 13.3653 179.968 12C180.992 10.72 181.76 9.52533 182.272 8.416C185.088 10.8053 187.136 13.024 188.416 15.072C189.611 17.12 190.421 19.6373 190.848 22.624C193.408 21.344 195.669 20.1493 197.632 19.04C199.509 17.9307 201.259 16.8213 202.88 15.712C204.416 14.6027 205.867 13.4507 207.232 12.256C208.512 11.0613 209.835 9.78133 211.2 8.416C212.907 9.952 214.443 11.232 215.808 12.256C217.088 13.3653 218.368 14.3467 219.648 15.2C220.843 16.0533 222.08 16.8213 223.36 17.504C224.555 18.272 225.92 19.0827 227.456 19.936C227.115 20.448 226.816 21.6 226.56 23.392C226.219 25.184 225.92 27.36 225.664 29.92C225.408 32.48 225.237 35.2107 225.152 38.112C224.981 41.0987 224.896 43.9573 224.896 46.688C224.896 49.76 225.024 52.4053 225.28 54.624C225.451 56.928 225.792 58.8907 226.304 60.512C226.816 62.1333 227.499 63.456 228.352 64.48C229.12 65.5893 230.144 66.528 231.424 67.296L231.296 68.704ZM89.0529 1.376C88.5409 3.08267 88.0716 5.216 87.645 7.776C87.2183 10.2507 86.877 12.7253 86.6209 15.2C86.3649 17.76 86.1516 20.1067 85.9809 22.24C85.8103 24.3733 85.7249 25.9093 85.7249 26.848C85.7249 31.712 85.7676 36.576 85.853 41.44C85.853 46.304 85.853 51.168 85.853 56.032L87.5169 57.824L101.853 51.68C101.938 49.8027 101.981 47.328 101.981 44.256C101.981 41.184 101.981 38.0693 101.981 34.912V23.264C101.981 17.888 100.829 14.7733 98.5249 13.92V12L121.309 12V13.92C120.285 14.3467 119.474 15.2 118.877 16.48C118.194 17.8453 117.853 19.7227 117.853 22.112V56.032L119.517 57.824L133.725 51.68V23.264C133.725 17.888 132.573 14.7733 130.269 13.92V12H153.821V13.92C152.797 14.3467 151.986 15.2 151.389 16.48C150.706 17.8453 150.365 19.7227 150.365 22.112V66.784L155.101 68.832V70.24C152.114 70.6667 148.872 71.2213 145.373 71.904C141.874 72.672 138.76 73.3973 136.029 74.08L133.725 70.24V59.744C130.397 62.1333 127.41 64.48 124.765 66.784C122.034 69.1733 119.261 71.9893 116.445 75.232C114.994 73.8667 113.672 72.6293 112.477 71.52C111.282 70.496 110.088 69.5573 108.893 68.704C107.613 67.8507 106.29 66.9973 104.925 66.144C103.56 65.376 101.981 64.5653 100.189 63.712L100.957 60.256C97.7996 62.56 94.9409 64.864 92.381 67.168C89.8209 69.472 87.1756 72.16 84.4449 75.232C82.9943 73.8667 81.6716 72.6293 80.4769 71.52C79.2823 70.496 78.0876 69.5573 76.8929 68.704C75.6129 67.8507 74.2903 66.9973 72.9249 66.144C71.5596 65.376 69.9809 64.5653 68.1889 63.712C68.5303 62.5173 68.8289 61.2373 69.0849 59.872C69.2556 58.592 69.4263 56.928 69.5969 54.88C69.6823 52.832 69.7676 50.3147 69.8529 47.328C69.9383 44.3413 69.9809 40.6293 69.9809 36.192C69.9809 32.4373 69.9809 29.3227 69.9809 26.848C69.8956 24.4587 69.8103 22.496 69.7249 20.96C69.6396 19.424 69.5116 18.144 69.341 17.12C69.1703 16.1813 68.9996 15.2853 68.8289 14.432C70.5356 13.8347 72.2849 13.024 74.077 12C75.7836 10.976 77.5329 9.824 79.325 8.544C81.0316 7.264 82.6529 5.94133 84.1889 4.576C85.725 3.21067 87.0903 1.888 88.285 0.608L89.0529 1.376ZM25.592 7.904C27.2134 9.09867 29.2187 10.208 31.608 11.232C33.9974 12.256 36.472 13.1093 39.032 13.792C41.5067 14.56 43.9387 15.1573 46.328 15.584C48.632 16.0107 50.552 16.224 52.088 16.224C51.4054 17.3333 50.808 18.8693 50.296 20.832C49.784 22.88 49.4 25.056 49.144 27.36C48.8027 29.7493 48.5894 32.1813 48.504 34.656C48.3334 37.1307 48.248 39.392 48.248 41.44C48.248 46.6453 48.5894 50.9547 49.272 54.368C49.8694 57.8667 50.4667 60.5973 51.064 62.56C47.3947 63.2427 44.0667 64.5653 41.08 66.528C38.008 68.4907 34.9787 70.9653 31.992 73.952C28.4934 73.2693 24.184 72.672 19.064 72.16C13.944 71.7333 8.86671 71.4347 3.83205 71.264C4.08805 69.728 4.21605 67.808 4.21605 65.504C4.21605 63.712 4.13071 61.7493 3.96004 59.616C3.78938 57.568 3.57605 55.52 3.32005 53.472C3.06405 51.424 2.72271 49.4613 2.29605 47.584C1.86938 45.7067 1.40005 44.0853 0.888046 42.72C6.09338 42.2933 11.384 41.696 16.76 40.928C22.136 40.2453 27.384 39.4773 32.504 38.624C32.5894 36.1493 32.76 33.7173 33.016 31.328C33.272 28.9387 33.4854 26.848 33.656 25.056C32.632 24.6293 31.352 24.2453 29.816 23.904C28.1947 23.5627 26.488 23.2213 24.696 22.88C22.904 22.624 21.1547 22.368 19.448 22.112C17.7414 21.9413 16.2907 21.8133 15.096 21.728C14.6694 24.3733 13.6454 26.6347 12.024 28.512C10.3174 30.3893 7.45871 31.9253 3.44805 33.12C3.53338 32.096 3.57605 31.072 3.57605 30.048C3.57605 29.1093 3.57605 28.1707 3.57605 27.232C3.57605 24.3307 3.49071 22.0267 3.32005 20.32C3.06405 18.6987 2.63738 17.0773 2.04005 15.456C3.66138 15.2853 5.58138 14.944 7.80005 14.432C10.0187 14.0053 12.2374 13.408 14.456 12.64C16.6747 11.9573 18.808 11.232 20.856 10.464C22.8187 9.61067 24.3974 8.75733 25.592 7.904ZM33.784 62.432C33.3574 58.848 33.0587 55.6907 32.888 52.96C32.632 50.2293 32.4614 47.712 32.376 45.408L17.4 49.12C17.8267 50.8267 18.2107 52.6187 18.552 54.496C18.808 56.3733 18.936 58.2933 18.936 60.256C20.8987 60.256 23.288 60.4267 26.104 60.768C28.8347 61.1947 31.3947 61.7493 33.784 62.432Z" fill="url(#paint0_linear_3_698)" fill-opacity="0.5"/>
<defs>
<linearGradient id="paint0_linear_3_698" x1="-20" y1="54.5" x2="1900" y2="54.5" gradientUnits="userSpaceOnUse">
<stop stop-color="#DAD0C8"/>
<stop offset="1" stop-color="#ECE5E1"/>
</linearGradient>
</defs>
</svg>
