<svg width="26" height="26" viewBox="0 0 26 26" fill="none" xmlns="http://www.w3.org/2000/svg">
<g clip-path="url(#clip0_2011_40)">
<path d="M12.68 22.896C12.0613 22.448 11.2933 22.0213 10.376 21.616C9.45867 21.2107 8.50933 20.8907 7.528 20.656C7.54933 20.4 7.57067 20.112 7.592 19.792C7.61333 19.4507 7.624 19.1093 7.624 18.768C7.64533 18.4053 7.656 18.064 7.656 17.744C7.67733 17.4027 7.688 17.1147 7.688 16.88C7.688 14.9387 7.53867 13.3067 7.24 11.984C6.96267 10.6613 6.61067 9.648 6.184 8.944L5.256 8.752V8.208C5.61867 8.16533 6.056 8.09067 6.568 7.984C7.08 7.856 7.58133 7.71733 8.072 7.568C8.584 7.39733 9.05333 7.22667 9.48 7.056C9.90667 6.864 10.2267 6.68267 10.44 6.512C10.952 7.25867 11.304 8.48533 11.496 10.192C11.7093 11.8987 11.816 13.904 11.816 16.208C11.816 16.656 11.816 17.1147 11.816 17.584C11.816 18.032 11.8053 18.5013 11.784 18.992L13.384 19.856H13.576C13.8747 19.344 14.1307 18.704 14.344 17.936C14.5787 17.1467 14.7707 16.3253 14.92 15.472C15.0907 14.6187 15.2187 13.7867 15.304 12.976C15.3893 12.144 15.432 11.4187 15.432 10.8C15.432 9.94667 15.336 9.30667 15.144 8.88C14.9733 8.45333 14.7067 8.15467 14.344 7.984L14.376 7.472C15.208 7.408 16.0507 7.30133 16.904 7.152C17.7573 6.98133 18.6 6.768 19.432 6.512C19.3893 6.576 19.368 6.65067 19.368 6.736C19.368 6.82133 19.368 6.91733 19.368 7.024C19.368 7.70667 19.4107 8.35733 19.496 8.976C19.5813 9.57333 19.7733 10.032 20.072 10.352L16.968 19.824L13 22.896H12.68Z" fill="#FFA01A"/>
</g>
<defs>
<clipPath id="clip0_2011_40">
<rect width="26" height="26" fill="white"/>
</clipPath>
</defs>
</svg>
