<svg width="26" height="26" viewBox="0 0 26 26" fill="none" xmlns="http://www.w3.org/2000/svg">
<g clip-path="url(#clip0_2011_40)">
<path d="M12.68 21.896C12.0613 21.448 11.2933 21.0213 10.376 20.616C9.45867 20.2107 8.50933 19.8907 7.528 19.656C7.54933 19.4 7.57067 19.112 7.592 18.792C7.61333 18.4507 7.624 18.1093 7.624 17.768C7.64533 17.4053 7.656 17.064 7.656 16.744C7.67733 16.4027 7.688 16.1147 7.688 15.88C7.688 13.9387 7.53867 12.3067 7.24 10.984C6.96267 9.66133 6.61067 8.648 6.184 7.944L5.256 7.752V7.208C5.61867 7.16533 6.056 7.09067 6.568 6.984C7.08 6.856 7.58133 6.71733 8.072 6.568C8.584 6.39733 9.05333 6.22667 9.48 6.056C9.90667 5.864 10.2267 5.68267 10.44 5.512C10.952 6.25867 11.304 7.48533 11.496 9.192C11.7093 10.8987 11.816 12.904 11.816 15.208C11.816 15.656 11.816 16.1147 11.816 16.584C11.816 17.032 11.8053 17.5013 11.784 17.992L13.384 18.856H13.576C13.8747 18.344 14.1307 17.704 14.344 16.936C14.5787 16.1467 14.7707 15.3253 14.92 14.472C15.0907 13.6187 15.2187 12.7867 15.304 11.976C15.3893 11.144 15.432 10.4187 15.432 9.8C15.432 8.94667 15.336 8.30667 15.144 7.88C14.9733 7.45333 14.7067 7.15467 14.344 6.984L14.376 6.472C15.208 6.408 16.0507 6.30133 16.904 6.152C17.7573 5.98133 18.6 5.768 19.432 5.512C19.3893 5.576 19.368 5.65067 19.368 5.736C19.368 5.82133 19.368 5.91733 19.368 6.024C19.368 6.70667 19.4107 7.35733 19.496 7.976C19.5813 8.57333 19.7733 9.032 20.072 9.352L16.968 18.824L13 21.896H12.68Z" fill="#0E0B07"/>
</g>
<defs>
<clipPath id="clip0_2011_40">
<rect width="26" height="26" fill="white"/>
</clipPath>
</defs>
</svg>
