<svg width="87" height="46" viewBox="0 0 87 46" fill="none" xmlns="http://www.w3.org/2000/svg">
<path d="M5.1875 28.0938C5.1875 28.0938 4.45833 25.5833 3 20.5625C3 20.5625 2.25521 18.1042 0.765625 13.1875L4.89062 12.1875L6.96875 21.7031L7.32812 25.0938L8.15625 25.0312L9.0625 21.0625C9.30208 20.0208 9.51042 18.974 9.6875 17.9219L10.6562 12.3906L14.6406 12.8281C13.8698 16.5156 12.8542 20.2552 11.5938 24.0469L10.2344 27.9375C9.04688 28.1042 8.05208 28.1875 7.25 28.1875C6.44792 28.1875 5.76042 28.1562 5.1875 28.0938ZM22.475 18.75C22.475 21.2604 22.6052 23.4375 22.8656 25.2812L25.9438 25.125C26.5063 22.8958 26.7875 20.7188 26.7875 18.5938C26.7875 17.7396 26.7302 16.9792 26.6156 16.3125C25.9906 16 23.7823 15.8438 19.9906 15.8438H19.1938C18.975 15.8438 18.7354 15.8542 18.475 15.875L19.1469 12.25C19.324 12.2396 19.4854 12.2292 19.6313 12.2188C19.7875 12.1979 19.9438 12.1875 20.1 12.1875L20.5688 12.1562C20.725 12.1562 21.1625 12.1562 21.8813 12.1562C23.9438 12.1562 26.2042 12.4323 28.6625 12.9844C29.4438 13.1823 29.9229 13.5312 30.1 14.0312C30.3708 14.8021 30.5063 16.0573 30.5063 17.7969C30.5063 20.974 30.0219 24.0469 29.0531 27.0156C28.9698 27.2865 28.8708 27.5156 28.7563 27.7031C28.6521 27.8906 28.4646 28.0104 28.1938 28.0625C27.9229 28.125 27.6052 28.1823 27.2406 28.2344C26.876 28.2865 26.5167 28.3333 26.1625 28.375C25.3917 28.4479 24.8604 28.4844 24.5688 28.4844C24.2771 28.4844 23.9646 28.4792 23.6313 28.4688C23.2979 28.4688 22.9333 28.4583 22.5375 28.4375C21.4958 28.3854 20.7927 28.2917 20.4281 28.1562C20.0635 28.0312 19.8135 27.8125 19.6781 27.5C19.5531 27.1875 19.4281 26.6875 19.3031 26C19.0115 24.3958 18.8656 22.5677 18.8656 20.5156C18.8656 19.7344 18.8865 18.9583 18.9281 18.1875L22.475 17.4844V18.75ZM35.7625 5.70312L39.6375 4.98438L39.7469 16.25L39.2625 28L35.9656 28.2812L35.7625 5.70312ZM49.4562 4.48438C49.5604 4.92188 49.6125 5.38542 49.6125 5.875C49.6125 6.35417 49.5969 6.77083 49.5656 7.125C49.5344 7.46875 49.4979 7.79167 49.4562 8.09375C49.3521 8.75 49.2323 9.20312 49.0969 9.45312L45.5187 9.29688C45.6854 8.26562 45.7687 6.80208 45.7687 4.90625L49.4562 4.48438ZM49.3 12.3906C49.3521 13.4635 49.3781 14.3594 49.3781 15.0781C49.3781 15.7969 49.3625 16.6458 49.3312 17.625L49.1437 30.9375C49.0812 31.9271 48.6437 32.7812 47.8312 33.5L44.2687 36.6094L41.8469 33.8125L45.675 30.7812L45.3625 12.8906L49.3 12.3906ZM58.775 18.75C58.775 21.2604 58.9052 23.4375 59.1656 25.2812L62.2438 25.125C62.8063 22.8958 63.0875 20.7188 63.0875 18.5938C63.0875 17.7396 63.0302 16.9792 62.9156 16.3125C62.2906 16 60.0823 15.8438 56.2906 15.8438H55.4938C55.275 15.8438 55.0354 15.8542 54.775 15.875L55.4469 12.25C55.624 12.2396 55.7854 12.2292 55.9313 12.2188C56.0875 12.1979 56.2438 12.1875 56.4 12.1875L56.8688 12.1562C57.025 12.1562 57.4625 12.1562 58.1813 12.1562C60.2438 12.1562 62.5042 12.4323 64.9625 12.9844C65.7438 13.1823 66.2229 13.5312 66.4 14.0312C66.6708 14.8021 66.8063 16.0573 66.8063 17.7969C66.8063 20.974 66.3219 24.0469 65.3531 27.0156C65.2698 27.2865 65.1708 27.5156 65.0563 27.7031C64.9521 27.8906 64.7646 28.0104 64.4938 28.0625C64.2229 28.125 63.9052 28.1823 63.5406 28.2344C63.176 28.2865 62.8167 28.3333 62.4625 28.375C61.6917 28.4479 61.1604 28.4844 60.8688 28.4844C60.5771 28.4844 60.2646 28.4792 59.9313 28.4688C59.5979 28.4688 59.2333 28.4583 58.8375 28.4375C57.7958 28.3854 57.0927 28.2917 56.7281 28.1562C56.3635 28.0312 56.1135 27.8125 55.9781 27.5C55.8531 27.1875 55.7281 26.6875 55.6031 26C55.3115 24.3958 55.1656 22.5677 55.1656 20.5156C55.1656 19.7344 55.1865 18.9583 55.2281 18.1875L58.775 17.4844V18.75ZM72.2031 13.0625L75.5312 12.6406L76.0781 15.0156L78.8281 12.6406H82.6719C82.8698 12.6406 83.1458 12.7917 83.5 13.0938C84.0938 13.5833 84.3906 14.0208 84.3906 14.4062L83.8438 28.0312L80.3594 28.3125L80.2969 16.25C80.1719 16.2083 80 16.1875 79.7812 16.1875C79.5625 16.1875 79.3594 16.1979 79.1719 16.2188C78.9948 16.2396 78.8021 16.2708 78.5938 16.3125C78.1042 16.3958 77.7031 16.4948 77.3906 16.6094L76.2344 17.0312L75.8125 27.875L72.4844 28.125L72.2031 13.0625Z" fill="#0E0B07"/>
<path d="M5.64 41H4.8C4.016 41 3.44667 40.818 3.092 40.454C2.73733 40.0807 2.56 39.6093 2.56 39.04C2.56 38.2093 2.83067 37.4907 3.372 36.884C3.91333 36.268 4.52933 35.96 5.22 35.96C5.612 35.96 5.96667 36.0393 6.284 36.198C6.60133 36.3567 6.76 36.5107 6.76 36.66C6.76 36.94 6.62 37.08 6.34 37.08C6.21867 37.08 6.06467 37.0333 5.878 36.94C5.69133 36.8467 5.472 36.8 5.22 36.8C4.716 36.8 4.28667 37.038 3.932 37.514C3.57733 37.9807 3.4 38.4473 3.4 38.914C3.4 39.3807 3.50733 39.7073 3.722 39.894C3.946 40.0713 4.30533 40.16 4.8 40.16H5.64C6.284 40.16 6.928 40.0527 7.572 39.838C7.768 39.7727 7.88 39.74 7.908 39.74C8.188 39.74 8.328 39.88 8.328 40.16C8.328 40.3653 8.188 40.5147 7.908 40.608C7.124 40.8693 6.368 41 5.64 41ZM16.3349 38.536C15.9896 38.9747 15.7096 39.3107 15.4949 39.544C15.2802 39.768 15.0096 40.0107 14.6829 40.272C14.0762 40.7573 13.3016 41 12.3589 41C11.7336 41 11.2249 40.7807 10.8329 40.342C10.4502 39.894 10.2589 39.32 10.2589 38.62C10.2589 37.5653 10.4176 36.4733 10.7349 35.344C11.0616 34.2147 11.4862 33.272 12.0089 32.516C12.5409 31.7507 13.0776 31.368 13.6189 31.368C14.4589 31.368 14.8789 32.0307 14.8789 33.356C14.8789 34.028 14.6176 34.6813 14.0949 35.316C13.7962 35.68 13.4976 36.0067 13.1989 36.296C12.9096 36.5853 12.7276 36.7673 12.6529 36.842C12.5876 36.9073 12.4896 36.94 12.3589 36.94C12.2282 36.94 12.1256 36.8933 12.0509 36.8C11.9762 36.6973 11.9389 36.5993 11.9389 36.506C11.9389 36.4127 11.9902 36.3147 12.0929 36.212C12.1956 36.1093 12.3589 35.9507 12.5829 35.736C12.8069 35.5213 12.9562 35.372 13.0309 35.288C13.1149 35.1947 13.2362 35.05 13.3949 34.854C13.5629 34.658 13.6842 34.4947 13.7589 34.364C13.9456 34.0187 14.0389 33.6827 14.0389 33.356C14.0389 32.5907 13.8989 32.208 13.6189 32.208C13.4229 32.208 13.1849 32.39 12.9049 32.754C12.6249 33.1087 12.3496 33.5707 12.0789 34.14C11.8082 34.7093 11.5749 35.4 11.3789 36.212C11.1922 37.024 11.0989 37.8267 11.0989 38.62C11.0989 39.1147 11.2109 39.4973 11.4349 39.768C11.6682 40.0293 11.9762 40.16 12.3589 40.16C13.0682 40.16 13.6376 40.006 14.0669 39.698C14.4962 39.3807 15.0329 38.816 15.6769 38.004L16.4609 37.052C16.5916 36.884 16.7176 36.8 16.8389 36.8C17.1189 36.8 17.2589 36.94 17.2589 37.22L17.2169 37.472C17.1516 37.7333 17.1189 37.9247 17.1189 38.046C17.1189 38.158 17.1376 38.2887 17.1749 38.438C17.2122 38.578 17.2776 38.7413 17.3709 38.928C17.4736 39.1147 17.6369 39.2733 17.8609 39.404C18.0849 39.5347 18.3509 39.6 18.6589 39.6C19.2002 39.6 19.6622 39.46 20.0449 39.18C20.4276 38.9 20.6189 38.5453 20.6189 38.116C20.6189 37.2387 20.2456 36.8047 19.4989 36.814C19.4149 36.814 19.2562 36.8373 19.0229 36.884C18.7896 36.9213 18.6682 36.94 18.6589 36.94C18.3789 36.94 18.2389 36.8 18.2389 36.52C18.2389 36.3147 18.3882 36.17 18.6869 36.086C18.9856 36.002 19.2562 35.96 19.4989 35.96C20.0962 35.96 20.5722 36.156 20.9269 36.548C21.2816 36.94 21.4589 37.472 21.4589 38.144C21.4589 38.8067 21.1836 39.3573 20.6329 39.796C20.0916 40.2253 19.4569 40.44 18.7289 40.44C18.0009 40.44 17.4409 40.244 17.0489 39.852C16.6662 39.4507 16.4282 39.012 16.3349 38.536ZM36.6064 40.16C36.6064 40.5333 36.177 40.72 35.3184 40.72C34.917 40.72 34.6044 40.6313 34.3804 40.454C34.1657 40.2767 34.0584 39.9687 34.0584 39.53C34.0584 39.0913 34.021 38.7133 33.9464 38.396C33.8717 38.0787 33.769 37.92 33.6384 37.92C33.181 37.92 32.719 38.284 32.2524 39.012C32.0564 39.3107 31.8464 39.614 31.6224 39.922C31.4077 40.2207 31.1464 40.4773 30.8384 40.692C30.5397 40.8973 30.213 41 29.8584 41C29.0837 41 28.6684 40.3093 28.6124 38.928C28.1457 39.1987 27.8097 39.362 27.6044 39.418C27.399 39.4647 27.2217 39.5067 27.0724 39.544C26.9324 39.5813 26.8064 39.614 26.6944 39.642C26.5917 39.6607 26.447 39.754 26.2604 39.922C26.0737 40.09 25.887 40.244 25.7004 40.384C25.5137 40.5147 25.313 40.58 25.0984 40.58C24.725 40.58 24.4217 40.384 24.1884 39.992C23.955 39.5907 23.8384 39.11 23.8384 38.55C23.8384 37.9807 23.9084 36.94 24.0484 35.428C24.1884 33.9067 24.2584 32.6933 24.2584 31.788C24.2584 31.6667 24.2957 31.5687 24.3704 31.494C24.4544 31.41 24.557 31.368 24.6784 31.368C24.9584 31.368 25.0984 31.508 25.0984 31.788C25.0984 32.712 25.0284 33.958 24.8884 35.526C24.7484 37.0847 24.6784 38.032 24.6784 38.368C24.6784 38.704 24.7157 39.0167 24.7904 39.306C24.865 39.5953 24.9677 39.74 25.0984 39.74C25.1544 39.74 25.2477 39.6747 25.3784 39.544C25.7797 39.1427 26.2464 38.8767 26.7784 38.746C27.3944 38.578 28.0057 38.312 28.6124 37.948C28.687 36.296 28.9857 34.8867 29.5084 33.72C30.0404 32.544 30.6704 31.956 31.3984 31.956C31.9024 31.956 32.285 32.138 32.5464 32.502C32.8077 32.866 32.9384 33.3467 32.9384 33.944C32.9384 34.5413 32.789 35.1293 32.4904 35.708C32.201 36.2773 31.8277 36.7347 31.3704 37.08C30.6797 37.6027 30.0357 38.0507 29.4384 38.424C29.4384 39.5813 29.5784 40.16 29.8584 40.16C30.2597 40.16 30.703 39.796 31.1884 39.068C31.403 38.7693 31.6224 38.4707 31.8464 38.172C32.3877 37.444 32.985 37.08 33.6384 37.08C34.4784 37.08 34.8984 37.8733 34.8984 39.46C34.8984 39.74 35.0337 39.88 35.3044 39.88C35.5844 39.88 35.7944 39.8567 35.9344 39.81C36.0744 39.7633 36.1584 39.74 36.1864 39.74C36.4664 39.74 36.6064 39.88 36.6064 40.16ZM29.4944 37.388C29.8864 37.1453 30.2877 36.8653 30.6984 36.548C31.6317 35.848 32.0984 34.924 32.0984 33.776C32.0984 33.524 32.0424 33.3 31.9304 33.104C31.8184 32.8987 31.641 32.796 31.3984 32.796C31.0157 32.796 30.633 33.2347 30.2504 34.112C29.8677 34.9893 29.6157 36.0813 29.4944 37.388ZM40.0918 34.056C40.2411 34.056 40.3951 34.126 40.5538 34.266C40.7125 34.3967 40.7918 34.5367 40.7918 34.686C40.7918 34.826 40.7265 34.9333 40.5958 35.008C40.4745 35.0827 40.3391 35.12 40.1898 35.12C40.0405 35.12 39.9145 35.0547 39.8118 34.924C39.7185 34.784 39.6718 34.6347 39.6718 34.476C39.6718 34.196 39.8118 34.056 40.0918 34.056ZM38.8318 39.264C38.3091 39.824 37.7771 40.2253 37.2358 40.468C37.0678 40.5427 36.9325 40.58 36.8298 40.58C36.5498 40.58 36.4098 40.44 36.4098 40.16C36.4098 39.9827 36.5498 39.838 36.8298 39.726C36.9791 39.67 37.1751 39.558 37.4178 39.39C37.6698 39.222 37.8378 39.096 37.9218 39.012C38.0058 38.928 38.1505 38.774 38.3558 38.55C38.5705 38.326 38.7385 38.158 38.8598 38.046C38.9811 37.9247 39.1445 37.8033 39.3498 37.682C39.5645 37.5607 39.7605 37.5 39.9378 37.5C40.3018 37.5 40.5818 37.6307 40.7778 37.892C40.9738 38.1533 41.0905 38.4427 41.1278 38.76C41.2305 39.6 41.3938 40.02 41.6178 40.02C41.7951 40.02 42.0238 39.9733 42.3038 39.88C42.5838 39.7867 42.7378 39.74 42.7658 39.74C43.0458 39.74 43.1858 39.88 43.1858 40.16C43.1858 40.3653 43.0458 40.5147 42.7658 40.608C42.2618 40.776 41.8511 40.86 41.5338 40.86C41.2258 40.86 40.9738 40.7293 40.7778 40.468C40.5818 40.2067 40.4651 39.9173 40.4278 39.6C40.3251 38.76 40.1618 38.34 39.9378 38.34C39.8165 38.34 39.6765 38.4193 39.5178 38.578C39.3685 38.7273 39.2471 38.8487 39.1538 38.942C39.0605 39.026 38.9531 39.1333 38.8318 39.264ZM52.2847 40.608C51.7807 40.776 51.3887 40.86 51.1087 40.86C50.8287 40.86 50.6094 40.7573 50.4507 40.552C50.2921 40.3467 50.1474 39.9967 50.0167 39.502C49.8954 39.0073 49.8021 38.76 49.7367 38.76C49.4941 38.76 49.2374 39.1333 48.9667 39.88C48.8641 40.16 48.6961 40.4167 48.4627 40.65C48.2294 40.8833 47.9354 41 47.5807 41C47.2354 41 46.9647 40.846 46.7687 40.538C46.5727 40.23 46.4561 39.894 46.4187 39.53C46.3907 39.166 46.3441 38.83 46.2787 38.522C46.2134 38.214 46.1061 38.06 45.9567 38.06C45.8541 38.06 45.7794 38.088 45.7327 38.144C45.6861 38.2 45.6441 38.256 45.6067 38.312C45.5787 38.3587 45.5461 38.41 45.5087 38.466C45.4807 38.5127 45.4434 38.578 45.3967 38.662C45.3594 38.746 45.3127 38.8347 45.2567 38.928C45.0701 39.2547 44.9207 39.4973 44.8087 39.656C44.5847 40.0107 44.2534 40.2813 43.8147 40.468C43.6467 40.5427 43.5114 40.58 43.4087 40.58C43.1287 40.58 42.9887 40.44 42.9887 40.16C42.9887 39.9827 43.1381 39.838 43.4367 39.726C43.7354 39.614 43.9454 39.4553 44.0667 39.25C44.1974 39.0353 44.3421 38.7927 44.5007 38.522C44.6594 38.2513 44.7667 38.0693 44.8227 37.976C44.8881 37.8827 44.9674 37.7707 45.0607 37.64C45.1541 37.5 45.2381 37.4113 45.3127 37.374C45.5087 37.2713 45.7234 37.22 45.9567 37.22C46.3394 37.22 46.6287 37.374 46.8247 37.682C47.0207 37.99 47.1327 38.326 47.1607 38.69C47.1981 39.054 47.2494 39.39 47.3147 39.698C47.3801 40.006 47.4874 40.16 47.6367 40.16C47.7861 40.16 47.9261 40.0433 48.0567 39.81C48.1967 39.5767 48.3181 39.32 48.4207 39.04C48.5234 38.76 48.6867 38.5033 48.9107 38.27C49.1441 38.0367 49.4194 37.92 49.7367 37.92C49.9794 37.92 50.1567 37.9807 50.2687 38.102C50.3807 38.214 50.4601 38.3027 50.5067 38.368C50.5627 38.4333 50.6094 38.5313 50.6467 38.662C50.6934 38.7927 50.7261 38.8907 50.7447 38.956C50.7634 39.012 50.7914 39.1147 50.8287 39.264C50.9407 39.7773 51.0434 40.0293 51.1367 40.02C51.3141 40.02 51.5427 39.9733 51.8227 39.88C52.1027 39.7867 52.2567 39.74 52.2847 39.74C52.5647 39.74 52.7047 39.88 52.7047 40.16C52.7047 40.3653 52.5647 40.5147 52.2847 40.608ZM55.7411 41.378C55.6851 41.3033 55.5171 41.0887 55.2371 40.734C54.9571 40.3793 54.7657 40.132 54.6631 39.992C54.5697 39.8427 54.4344 39.628 54.2571 39.348C53.9491 38.8627 53.7951 38.368 53.7951 37.864C53.7951 37.36 53.9304 36.9167 54.2011 36.534C54.4811 36.1513 54.8311 35.96 55.2511 35.96C55.6711 35.96 56.0397 36.086 56.3571 36.338C56.6744 36.59 56.8844 36.9493 56.9871 37.416C57.0057 37.4907 57.0151 37.5653 57.0151 37.64C57.0151 37.92 56.8751 38.06 56.5951 38.06C56.3897 38.06 56.2497 37.92 56.1751 37.64C56.0444 37.08 55.7644 36.8 55.3351 36.8C55.1017 36.8 54.9244 36.9167 54.8031 37.15C54.6911 37.374 54.6351 37.598 54.6351 37.822C54.6351 38.046 54.6631 38.2467 54.7191 38.424C54.7844 38.6013 54.8871 38.8067 55.0271 39.04C55.1764 39.264 55.2977 39.4413 55.3911 39.572C55.6431 39.9267 55.9744 40.3513 56.3851 40.846C57.0011 40.3887 57.6217 40.0527 58.2471 39.838C58.4431 39.7727 58.5551 39.74 58.5831 39.74C58.8631 39.74 59.0031 39.88 59.0031 40.16C59.0031 40.3653 58.8631 40.5147 58.5831 40.608C58.0324 40.7853 57.4584 41.0933 56.8611 41.532C57.2997 42.2133 57.5191 42.7873 57.5191 43.254C57.5191 43.7207 57.3324 44.1873 56.9591 44.654C56.5857 45.13 56.1797 45.368 55.7411 45.368C55.3024 45.368 54.9384 45.2187 54.6491 44.92C54.3597 44.6213 54.2151 44.248 54.2151 43.8C54.2151 43.1093 54.7237 42.302 55.7411 41.378ZM56.2171 42.064C55.4424 42.792 55.0551 43.3707 55.0551 43.8C55.0551 44.024 55.1157 44.2013 55.2371 44.332C55.3584 44.4627 55.5217 44.528 55.7271 44.528C55.9417 44.528 56.1517 44.374 56.3571 44.066C56.5717 43.758 56.6791 43.464 56.6791 43.184C56.6791 42.9133 56.5251 42.54 56.2171 42.064Z" fill="#0E0B07"/>
</svg>
