<svg width="106" height="45" viewBox="0 0 106 45" fill="none" xmlns="http://www.w3.org/2000/svg">
<path d="M5.1875 28.0938C5.1875 28.0938 4.45833 25.5833 3 20.5625C3 20.5625 2.25521 18.1042 0.765625 13.1875L4.89062 12.1875L6.96875 21.7031L7.32812 25.0938L8.15625 25.0312L9.0625 21.0625C9.30208 20.0208 9.51042 18.974 9.6875 17.9219L10.6562 12.3906L14.6406 12.8281C13.8698 16.5156 12.8542 20.2552 11.5938 24.0469L10.2344 27.9375C9.04688 28.1042 8.05208 28.1875 7.25 28.1875C6.44792 28.1875 5.76042 28.1562 5.1875 28.0938ZM22.475 18.75C22.475 21.2604 22.6052 23.4375 22.8656 25.2812L25.9438 25.125C26.5063 22.8958 26.7875 20.7188 26.7875 18.5938C26.7875 17.7396 26.7302 16.9792 26.6156 16.3125C25.9906 16 23.7823 15.8438 19.9906 15.8438H19.1938C18.975 15.8438 18.7354 15.8542 18.475 15.875L19.1469 12.25C19.324 12.2396 19.4854 12.2292 19.6313 12.2188C19.7875 12.1979 19.9438 12.1875 20.1 12.1875L20.5688 12.1562C20.725 12.1562 21.1625 12.1562 21.8813 12.1562C23.9438 12.1562 26.2042 12.4323 28.6625 12.9844C29.4438 13.1823 29.9229 13.5312 30.1 14.0312C30.3708 14.8021 30.5063 16.0573 30.5063 17.7969C30.5063 20.974 30.0219 24.0469 29.0531 27.0156C28.9698 27.2865 28.8708 27.5156 28.7563 27.7031C28.6521 27.8906 28.4646 28.0104 28.1938 28.0625C27.9229 28.125 27.6052 28.1823 27.2406 28.2344C26.876 28.2865 26.5167 28.3333 26.1625 28.375C25.3917 28.4479 24.8604 28.4844 24.5688 28.4844C24.2771 28.4844 23.9646 28.4792 23.6313 28.4688C23.2979 28.4688 22.9333 28.4583 22.5375 28.4375C21.4958 28.3854 20.7927 28.2917 20.4281 28.1562C20.0635 28.0312 19.8135 27.8125 19.6781 27.5C19.5531 27.1875 19.4281 26.6875 19.3031 26C19.0115 24.3958 18.8656 22.5677 18.8656 20.5156C18.8656 19.7344 18.8865 18.9583 18.9281 18.1875L22.475 17.4844V18.75ZM35.7625 5.70312L39.6375 4.98438L39.7469 16.25L39.2625 28L35.9656 28.2812L35.7625 5.70312ZM49.4562 4.48438C49.5604 4.92188 49.6125 5.38542 49.6125 5.875C49.6125 6.35417 49.5969 6.77083 49.5656 7.125C49.5344 7.46875 49.4979 7.79167 49.4562 8.09375C49.3521 8.75 49.2323 9.20312 49.0969 9.45312L45.5187 9.29688C45.6854 8.26562 45.7687 6.80208 45.7687 4.90625L49.4562 4.48438ZM49.3 12.3906C49.3521 13.4635 49.3781 14.3594 49.3781 15.0781C49.3781 15.7969 49.3625 16.6458 49.3312 17.625L49.1437 30.9375C49.0812 31.9271 48.6437 32.7812 47.8312 33.5L44.2687 36.6094L41.8469 33.8125L45.675 30.7812L45.3625 12.8906L49.3 12.3906ZM58.775 18.75C58.775 21.2604 58.9052 23.4375 59.1656 25.2812L62.2438 25.125C62.8063 22.8958 63.0875 20.7188 63.0875 18.5938C63.0875 17.7396 63.0302 16.9792 62.9156 16.3125C62.2906 16 60.0823 15.8438 56.2906 15.8438H55.4938C55.275 15.8438 55.0354 15.8542 54.775 15.875L55.4469 12.25C55.624 12.2396 55.7854 12.2292 55.9313 12.2188C56.0875 12.1979 56.2438 12.1875 56.4 12.1875L56.8688 12.1562C57.025 12.1562 57.4625 12.1562 58.1813 12.1562C60.2438 12.1562 62.5042 12.4323 64.9625 12.9844C65.7438 13.1823 66.2229 13.5312 66.4 14.0312C66.6708 14.8021 66.8063 16.0573 66.8063 17.7969C66.8063 20.974 66.3219 24.0469 65.3531 27.0156C65.2698 27.2865 65.1708 27.5156 65.0563 27.7031C64.9521 27.8906 64.7646 28.0104 64.4938 28.0625C64.2229 28.125 63.9052 28.1823 63.5406 28.2344C63.176 28.2865 62.8167 28.3333 62.4625 28.375C61.6917 28.4479 61.1604 28.4844 60.8688 28.4844C60.5771 28.4844 60.2646 28.4792 59.9313 28.4688C59.5979 28.4688 59.2333 28.4583 58.8375 28.4375C57.7958 28.3854 57.0927 28.2917 56.7281 28.1562C56.3635 28.0312 56.1135 27.8125 55.9781 27.5C55.8531 27.1875 55.7281 26.6875 55.6031 26C55.3115 24.3958 55.1656 22.5677 55.1656 20.5156C55.1656 19.7344 55.1865 18.9583 55.2281 18.1875L58.775 17.4844V18.75ZM72.2031 13.0625L75.5312 12.6406L76.0781 15.0156L78.8281 12.6406H82.6719C82.8698 12.6406 83.1458 12.7917 83.5 13.0938C84.0938 13.5833 84.3906 14.0208 84.3906 14.4062L83.8438 28.0312L80.3594 28.3125L80.2969 16.25C80.1719 16.2083 80 16.1875 79.7812 16.1875C79.5625 16.1875 79.3594 16.1979 79.1719 16.2188C78.9948 16.2396 78.8021 16.2708 78.5938 16.3125C78.1042 16.3958 77.7031 16.4948 77.3906 16.6094L76.2344 17.0312L75.8125 27.875L72.4844 28.125L72.2031 13.0625Z" fill="#0E0B07"/>
<path d="M52.64 40H51.8C51.016 40 50.4467 39.818 50.092 39.454C49.7373 39.0807 49.56 38.6093 49.56 38.04C49.56 37.2093 49.8307 36.4907 50.372 35.884C50.9133 35.268 51.5293 34.96 52.22 34.96C52.612 34.96 52.9667 35.0393 53.284 35.198C53.6013 35.3567 53.76 35.5107 53.76 35.66C53.76 35.94 53.62 36.08 53.34 36.08C53.2187 36.08 53.0647 36.0333 52.878 35.94C52.6913 35.8467 52.472 35.8 52.22 35.8C51.716 35.8 51.2867 36.038 50.932 36.514C50.5773 36.9807 50.4 37.4473 50.4 37.914C50.4 38.3807 50.5073 38.7073 50.722 38.894C50.946 39.0713 51.3053 39.16 51.8 39.16H52.64C53.284 39.16 53.928 39.0527 54.572 38.838C54.768 38.7727 54.88 38.74 54.908 38.74C55.188 38.74 55.328 38.88 55.328 39.16C55.328 39.3653 55.188 39.5147 54.908 39.608C54.124 39.8693 53.368 40 52.64 40ZM63.3349 37.536C62.9896 37.9747 62.7096 38.3107 62.4949 38.544C62.2802 38.768 62.0096 39.0107 61.6829 39.272C61.0762 39.7573 60.3016 40 59.3589 40C58.7336 40 58.2249 39.7807 57.8329 39.342C57.4502 38.894 57.2589 38.32 57.2589 37.62C57.2589 36.5653 57.4176 35.4733 57.7349 34.344C58.0616 33.2147 58.4862 32.272 59.0089 31.516C59.5409 30.7507 60.0776 30.368 60.6189 30.368C61.4589 30.368 61.8789 31.0307 61.8789 32.356C61.8789 33.028 61.6176 33.6813 61.0949 34.316C60.7962 34.68 60.4976 35.0067 60.1989 35.296C59.9096 35.5853 59.7276 35.7673 59.6529 35.842C59.5876 35.9073 59.4896 35.94 59.3589 35.94C59.2282 35.94 59.1256 35.8933 59.0509 35.8C58.9762 35.6973 58.9389 35.5993 58.9389 35.506C58.9389 35.4127 58.9902 35.3147 59.0929 35.212C59.1956 35.1093 59.3589 34.9507 59.5829 34.736C59.8069 34.5213 59.9562 34.372 60.0309 34.288C60.1149 34.1947 60.2362 34.05 60.3949 33.854C60.5629 33.658 60.6842 33.4947 60.7589 33.364C60.9456 33.0187 61.0389 32.6827 61.0389 32.356C61.0389 31.5907 60.8989 31.208 60.6189 31.208C60.4229 31.208 60.1849 31.39 59.9049 31.754C59.6249 32.1087 59.3496 32.5707 59.0789 33.14C58.8082 33.7093 58.5749 34.4 58.3789 35.212C58.1922 36.024 58.0989 36.8267 58.0989 37.62C58.0989 38.1147 58.2109 38.4973 58.4349 38.768C58.6682 39.0293 58.9762 39.16 59.3589 39.16C60.0682 39.16 60.6376 39.006 61.0669 38.698C61.4962 38.3807 62.0329 37.816 62.6769 37.004L63.4609 36.052C63.5916 35.884 63.7176 35.8 63.8389 35.8C64.1189 35.8 64.2589 35.94 64.2589 36.22L64.2169 36.472C64.1516 36.7333 64.1189 36.9247 64.1189 37.046C64.1189 37.158 64.1376 37.2887 64.1749 37.438C64.2122 37.578 64.2776 37.7413 64.3709 37.928C64.4736 38.1147 64.6369 38.2733 64.8609 38.404C65.0849 38.5347 65.3509 38.6 65.6589 38.6C66.2002 38.6 66.6622 38.46 67.0449 38.18C67.4276 37.9 67.6189 37.5453 67.6189 37.116C67.6189 36.2387 67.2456 35.8047 66.4989 35.814C66.4149 35.814 66.2562 35.8373 66.0229 35.884C65.7896 35.9213 65.6682 35.94 65.6589 35.94C65.3789 35.94 65.2389 35.8 65.2389 35.52C65.2389 35.3147 65.3882 35.17 65.6869 35.086C65.9856 35.002 66.2562 34.96 66.4989 34.96C67.0962 34.96 67.5722 35.156 67.9269 35.548C68.2816 35.94 68.4589 36.472 68.4589 37.144C68.4589 37.8067 68.1836 38.3573 67.6329 38.796C67.0916 39.2253 66.4569 39.44 65.7289 39.44C65.0009 39.44 64.4409 39.244 64.0489 38.852C63.6662 38.4507 63.4282 38.012 63.3349 37.536ZM83.6064 39.16C83.6064 39.5333 83.177 39.72 82.3184 39.72C81.917 39.72 81.6044 39.6313 81.3804 39.454C81.1657 39.2767 81.0584 38.9687 81.0584 38.53C81.0584 38.0913 81.021 37.7133 80.9464 37.396C80.8717 37.0787 80.769 36.92 80.6384 36.92C80.181 36.92 79.719 37.284 79.2524 38.012C79.0564 38.3107 78.8464 38.614 78.6224 38.922C78.4077 39.2207 78.1464 39.4773 77.8384 39.692C77.5397 39.8973 77.213 40 76.8584 40C76.0837 40 75.6684 39.3093 75.6124 37.928C75.1457 38.1987 74.8097 38.362 74.6044 38.418C74.399 38.4647 74.2217 38.5067 74.0724 38.544C73.9324 38.5813 73.8064 38.614 73.6944 38.642C73.5917 38.6607 73.447 38.754 73.2604 38.922C73.0737 39.09 72.887 39.244 72.7004 39.384C72.5137 39.5147 72.313 39.58 72.0984 39.58C71.725 39.58 71.4217 39.384 71.1884 38.992C70.955 38.5907 70.8384 38.11 70.8384 37.55C70.8384 36.9807 70.9084 35.94 71.0484 34.428C71.1884 32.9067 71.2584 31.6933 71.2584 30.788C71.2584 30.6667 71.2957 30.5687 71.3704 30.494C71.4544 30.41 71.557 30.368 71.6784 30.368C71.9584 30.368 72.0984 30.508 72.0984 30.788C72.0984 31.712 72.0284 32.958 71.8884 34.526C71.7484 36.0847 71.6784 37.032 71.6784 37.368C71.6784 37.704 71.7157 38.0167 71.7904 38.306C71.865 38.5953 71.9677 38.74 72.0984 38.74C72.1544 38.74 72.2477 38.6747 72.3784 38.544C72.7797 38.1427 73.2464 37.8767 73.7784 37.746C74.3944 37.578 75.0057 37.312 75.6124 36.948C75.687 35.296 75.9857 33.8867 76.5084 32.72C77.0404 31.544 77.6704 30.956 78.3984 30.956C78.9024 30.956 79.285 31.138 79.5464 31.502C79.8077 31.866 79.9384 32.3467 79.9384 32.944C79.9384 33.5413 79.789 34.1293 79.4904 34.708C79.201 35.2773 78.8277 35.7347 78.3704 36.08C77.6797 36.6027 77.0357 37.0507 76.4384 37.424C76.4384 38.5813 76.5784 39.16 76.8584 39.16C77.2597 39.16 77.703 38.796 78.1884 38.068C78.403 37.7693 78.6224 37.4707 78.8464 37.172C79.3877 36.444 79.985 36.08 80.6384 36.08C81.4784 36.08 81.8984 36.8733 81.8984 38.46C81.8984 38.74 82.0337 38.88 82.3044 38.88C82.5844 38.88 82.7944 38.8567 82.9344 38.81C83.0744 38.7633 83.1584 38.74 83.1864 38.74C83.4664 38.74 83.6064 38.88 83.6064 39.16ZM76.4944 36.388C76.8864 36.1453 77.2877 35.8653 77.6984 35.548C78.6317 34.848 79.0984 33.924 79.0984 32.776C79.0984 32.524 79.0424 32.3 78.9304 32.104C78.8184 31.8987 78.641 31.796 78.3984 31.796C78.0157 31.796 77.633 32.2347 77.2504 33.112C76.8677 33.9893 76.6157 35.0813 76.4944 36.388ZM87.0918 33.056C87.2411 33.056 87.3951 33.126 87.5538 33.266C87.7125 33.3967 87.7918 33.5367 87.7918 33.686C87.7918 33.826 87.7265 33.9333 87.5958 34.008C87.4745 34.0827 87.3391 34.12 87.1898 34.12C87.0405 34.12 86.9145 34.0547 86.8118 33.924C86.7185 33.784 86.6718 33.6347 86.6718 33.476C86.6718 33.196 86.8118 33.056 87.0918 33.056ZM85.8318 38.264C85.3091 38.824 84.7771 39.2253 84.2358 39.468C84.0678 39.5427 83.9325 39.58 83.8298 39.58C83.5498 39.58 83.4098 39.44 83.4098 39.16C83.4098 38.9827 83.5498 38.838 83.8298 38.726C83.9791 38.67 84.1751 38.558 84.4178 38.39C84.6698 38.222 84.8378 38.096 84.9218 38.012C85.0058 37.928 85.1505 37.774 85.3558 37.55C85.5705 37.326 85.7385 37.158 85.8598 37.046C85.9811 36.9247 86.1445 36.8033 86.3498 36.682C86.5645 36.5607 86.7605 36.5 86.9378 36.5C87.3018 36.5 87.5818 36.6307 87.7778 36.892C87.9738 37.1533 88.0905 37.4427 88.1278 37.76C88.2305 38.6 88.3938 39.02 88.6178 39.02C88.7951 39.02 89.0238 38.9733 89.3038 38.88C89.5838 38.7867 89.7378 38.74 89.7658 38.74C90.0458 38.74 90.1858 38.88 90.1858 39.16C90.1858 39.3653 90.0458 39.5147 89.7658 39.608C89.2618 39.776 88.8511 39.86 88.5338 39.86C88.2258 39.86 87.9738 39.7293 87.7778 39.468C87.5818 39.2067 87.4651 38.9173 87.4278 38.6C87.3251 37.76 87.1618 37.34 86.9378 37.34C86.8165 37.34 86.6765 37.4193 86.5178 37.578C86.3685 37.7273 86.2471 37.8487 86.1538 37.942C86.0605 38.026 85.9531 38.1333 85.8318 38.264ZM99.2847 39.608C98.7807 39.776 98.3887 39.86 98.1087 39.86C97.8287 39.86 97.6094 39.7573 97.4507 39.552C97.2921 39.3467 97.1474 38.9967 97.0167 38.502C96.8954 38.0073 96.8021 37.76 96.7367 37.76C96.4941 37.76 96.2374 38.1333 95.9667 38.88C95.8641 39.16 95.6961 39.4167 95.4627 39.65C95.2294 39.8833 94.9354 40 94.5807 40C94.2354 40 93.9647 39.846 93.7687 39.538C93.5727 39.23 93.4561 38.894 93.4187 38.53C93.3907 38.166 93.3441 37.83 93.2787 37.522C93.2134 37.214 93.1061 37.06 92.9567 37.06C92.8541 37.06 92.7794 37.088 92.7327 37.144C92.6861 37.2 92.6441 37.256 92.6067 37.312C92.5787 37.3587 92.5461 37.41 92.5087 37.466C92.4807 37.5127 92.4434 37.578 92.3967 37.662C92.3594 37.746 92.3127 37.8347 92.2567 37.928C92.0701 38.2547 91.9207 38.4973 91.8087 38.656C91.5847 39.0107 91.2534 39.2813 90.8147 39.468C90.6467 39.5427 90.5114 39.58 90.4087 39.58C90.1287 39.58 89.9887 39.44 89.9887 39.16C89.9887 38.9827 90.1381 38.838 90.4367 38.726C90.7354 38.614 90.9454 38.4553 91.0667 38.25C91.1974 38.0353 91.3421 37.7927 91.5007 37.522C91.6594 37.2513 91.7667 37.0693 91.8227 36.976C91.8881 36.8827 91.9674 36.7707 92.0607 36.64C92.1541 36.5 92.2381 36.4113 92.3127 36.374C92.5087 36.2713 92.7234 36.22 92.9567 36.22C93.3394 36.22 93.6287 36.374 93.8247 36.682C94.0207 36.99 94.1327 37.326 94.1607 37.69C94.1981 38.054 94.2494 38.39 94.3147 38.698C94.3801 39.006 94.4874 39.16 94.6367 39.16C94.7861 39.16 94.9261 39.0433 95.0567 38.81C95.1967 38.5767 95.3181 38.32 95.4207 38.04C95.5234 37.76 95.6867 37.5033 95.9107 37.27C96.1441 37.0367 96.4194 36.92 96.7367 36.92C96.9794 36.92 97.1567 36.9807 97.2687 37.102C97.3807 37.214 97.4601 37.3027 97.5067 37.368C97.5627 37.4333 97.6094 37.5313 97.6467 37.662C97.6934 37.7927 97.7261 37.8907 97.7447 37.956C97.7634 38.012 97.7914 38.1147 97.8287 38.264C97.9407 38.7773 98.0434 39.0293 98.1367 39.02C98.3141 39.02 98.5427 38.9733 98.8227 38.88C99.1027 38.7867 99.2567 38.74 99.2847 38.74C99.5647 38.74 99.7047 38.88 99.7047 39.16C99.7047 39.3653 99.5647 39.5147 99.2847 39.608ZM102.741 40.378C102.685 40.3033 102.517 40.0887 102.237 39.734C101.957 39.3793 101.766 39.132 101.663 38.992C101.57 38.8427 101.434 38.628 101.257 38.348C100.949 37.8627 100.795 37.368 100.795 36.864C100.795 36.36 100.93 35.9167 101.201 35.534C101.481 35.1513 101.831 34.96 102.251 34.96C102.671 34.96 103.04 35.086 103.357 35.338C103.674 35.59 103.884 35.9493 103.987 36.416C104.006 36.4907 104.015 36.5653 104.015 36.64C104.015 36.92 103.875 37.06 103.595 37.06C103.39 37.06 103.25 36.92 103.175 36.64C103.044 36.08 102.764 35.8 102.335 35.8C102.102 35.8 101.924 35.9167 101.803 36.15C101.691 36.374 101.635 36.598 101.635 36.822C101.635 37.046 101.663 37.2467 101.719 37.424C101.784 37.6013 101.887 37.8067 102.027 38.04C102.176 38.264 102.298 38.4413 102.391 38.572C102.643 38.9267 102.974 39.3513 103.385 39.846C104.001 39.3887 104.622 39.0527 105.247 38.838C105.443 38.7727 105.555 38.74 105.583 38.74C105.863 38.74 106.003 38.88 106.003 39.16C106.003 39.3653 105.863 39.5147 105.583 39.608C105.032 39.7853 104.458 40.0933 103.861 40.532C104.3 41.2133 104.519 41.7873 104.519 42.254C104.519 42.7207 104.332 43.1873 103.959 43.654C103.586 44.13 103.18 44.368 102.741 44.368C102.302 44.368 101.938 44.2187 101.649 43.92C101.36 43.6213 101.215 43.248 101.215 42.8C101.215 42.1093 101.724 41.302 102.741 40.378ZM103.217 41.064C102.442 41.792 102.055 42.3707 102.055 42.8C102.055 43.024 102.116 43.2013 102.237 43.332C102.358 43.4627 102.522 43.528 102.727 43.528C102.942 43.528 103.152 43.374 103.357 43.066C103.572 42.758 103.679 42.464 103.679 42.184C103.679 41.9133 103.525 41.54 103.217 41.064Z" fill="#0E0B07"/>
</svg>
