<svg width="104" height="29" viewBox="0 0 104 29" fill="none" xmlns="http://www.w3.org/2000/svg">
<path d="M7.68 26.896C7.06133 26.448 6.29333 26.0213 5.376 25.616C4.45867 25.2107 3.50933 24.8907 2.528 24.656C2.54933 24.4 2.57067 24.112 2.592 23.792C2.61333 23.4507 2.624 23.1093 2.624 22.768C2.64533 22.4053 2.656 22.064 2.656 21.744C2.67733 21.4027 2.688 21.1147 2.688 20.88C2.688 18.9387 2.53867 17.3067 2.24 15.984C1.96267 14.6613 1.61067 13.648 1.184 12.944L0.256 12.752V12.208C0.618667 12.1653 1.056 12.0907 1.568 11.984C2.08 11.856 2.58133 11.7173 3.072 11.568C3.584 11.3973 4.05333 11.2267 4.48 11.056C4.90667 10.864 5.22667 10.6827 5.44 10.512C5.952 11.2587 6.304 12.4853 6.496 14.192C6.70933 15.8987 6.816 17.904 6.816 20.208C6.816 20.656 6.816 21.1147 6.816 21.584C6.816 22.032 6.80533 22.5013 6.784 22.992L8.384 23.856H8.576C8.87467 23.344 9.13067 22.704 9.344 21.936C9.57867 21.1467 9.77067 20.3253 9.92 19.472C10.0907 18.6187 10.2187 17.7867 10.304 16.976C10.3893 16.144 10.432 15.4187 10.432 14.8C10.432 13.9467 10.336 13.3067 10.144 12.88C9.97333 12.4533 9.70667 12.1547 9.344 11.984L9.376 11.472C10.208 11.408 11.0507 11.3013 11.904 11.152C12.7573 10.9813 13.6 10.768 14.432 10.512C14.3893 10.576 14.368 10.6507 14.368 10.736C14.368 10.8213 14.368 10.9173 14.368 11.024C14.368 11.7067 14.4107 12.3573 14.496 12.976C14.5813 13.5733 14.7733 14.032 15.072 14.352L11.968 23.824L8 26.896H7.68ZM24.2918 10.512C25.7638 11.0027 26.9904 11.3333 27.9718 11.504C28.9531 11.6747 29.8598 11.76 30.6918 11.76C31.1611 11.76 31.5131 11.76 31.7478 11.76C32.0038 11.7387 32.2491 11.7067 32.4838 11.664C32.2278 13.0507 32.0998 14.6827 32.0998 16.56C32.0998 18.864 32.2918 21.104 32.6758 23.28C32.1424 23.344 31.5771 23.4827 30.9798 23.696C30.3824 23.9093 29.7851 24.176 29.1878 24.496C28.5904 24.816 28.0144 25.1893 27.4598 25.616C26.9051 26.0213 26.4038 26.448 25.9558 26.896C25.7211 26.704 25.3158 26.5013 24.7398 26.288C24.1638 26.096 23.5344 25.9147 22.8518 25.744C22.1691 25.5733 21.4864 25.4347 20.8038 25.328C20.1211 25.2213 19.5558 25.168 19.1078 25.168C18.9798 25.168 18.8518 25.1787 18.7238 25.2C18.6171 25.2 18.5104 25.2107 18.4038 25.232C18.7024 24.976 18.9158 24.4747 19.0438 23.728C19.1931 22.96 19.2678 21.968 19.2678 20.752C19.2678 20.1333 19.2464 19.4613 19.2038 18.736C19.1611 17.9893 19.0971 17.2853 19.0118 16.624C18.9478 15.9627 18.8731 15.3973 18.7878 14.928C18.7024 14.4587 18.6171 14.1707 18.5318 14.064C19.3638 13.9147 20.2918 13.5307 21.3158 12.912C22.3398 12.272 23.3318 11.472 24.2918 10.512ZM28.1318 14.576C27.1504 14.4907 26.1904 14.352 25.2518 14.16C24.3131 13.9467 23.5984 13.712 23.1078 13.456C23.2144 14.352 23.2891 15.1947 23.3318 15.984C23.3744 16.752 23.3958 17.5307 23.3958 18.32C23.3958 18.9387 23.3744 19.6427 23.3318 20.432C23.3104 21.2 23.2784 21.9573 23.2358 22.704C23.9611 22.7893 24.7611 22.9067 25.6358 23.056C26.5104 23.2053 27.3211 23.3973 28.0678 23.632L28.1318 14.576ZM35.9635 26.672C36.5182 26.3947 36.9342 25.936 37.2115 25.296C37.4888 24.656 37.6275 23.9093 37.6275 23.056V6.64C37.6275 6.10667 37.6168 5.62667 37.5955 5.2C37.5742 4.77333 37.5208 4.37867 37.4355 4.016C37.3715 3.65333 37.2755 3.30133 37.1475 2.96C37.0195 2.61867 36.8595 2.26667 36.6675 1.904C37.0942 2.05333 37.5955 2.128 38.1715 2.128C38.8755 2.128 39.6115 2.01067 40.3795 1.776C41.1688 1.54133 42.0115 1.21067 42.9075 0.783998C42.4808 1.296 42.1822 1.97867 42.0115 2.832C41.8622 3.68533 41.7875 4.66667 41.7875 5.776V21.264C41.7875 22.1387 41.8195 22.864 41.8835 23.44C41.9475 24.016 42.0542 24.528 42.2035 24.976C42.3742 25.424 42.6088 25.8507 42.9075 26.256C43.2062 26.6827 43.5795 27.184 44.0275 27.76L43.8355 28.048C43.2595 27.7707 42.7795 27.5467 42.3955 27.376C42.0115 27.2267 41.6808 27.088 41.4035 26.96C41.1475 26.832 40.9128 26.6933 40.6995 26.544C40.5075 26.416 40.3048 26.2347 40.0915 26C39.4728 26.256 38.8008 26.4693 38.0755 26.64C37.3715 26.8107 36.6782 26.896 35.9955 26.896L35.9635 26.672ZM46.251 11.824C46.699 11.7813 47.2003 11.7173 47.755 11.632C48.3097 11.5253 48.8643 11.408 49.419 11.28C49.9737 11.152 50.4857 11.024 50.955 10.896C51.4243 10.7467 51.7977 10.608 52.075 10.48C52.0323 10.8427 51.9897 11.1733 51.947 11.472C51.9257 11.7707 51.9043 12.0907 51.883 12.432C51.883 12.7733 51.8723 13.1467 51.851 13.552C51.851 13.9573 51.851 14.4373 51.851 14.992V21.456L53.195 22.48L56.267 21.136V16.144C56.267 15.4187 56.2457 14.8213 56.203 14.352C56.1817 13.8827 56.1177 13.5093 56.011 13.232C55.9043 12.9547 55.755 12.752 55.563 12.624C55.3923 12.4747 55.147 12.3573 54.827 12.272V11.856C55.851 11.792 56.8537 11.6427 57.835 11.408C58.8377 11.1733 59.7017 10.8747 60.427 10.512V18.064C60.427 19.0667 60.4483 19.888 60.491 20.528C60.5337 21.1467 60.6083 21.648 60.715 22.032C60.8217 22.416 60.9603 22.6933 61.131 22.864C61.323 23.0347 61.5683 23.152 61.867 23.216V23.568C61.5897 23.696 61.2803 23.888 60.939 24.144C60.5977 24.4 60.267 24.688 59.947 25.008C59.627 25.328 59.339 25.6587 59.083 26C58.827 26.32 58.635 26.6187 58.507 26.896C57.803 26.2987 57.291 25.744 56.971 25.232C56.6723 24.72 56.4697 24.0907 56.363 23.344C55.723 23.664 55.1577 23.9627 54.667 24.24C54.1977 24.5173 53.7603 24.7947 53.355 25.072C52.971 25.3493 52.6083 25.6373 52.267 25.936C51.947 26.2347 51.6163 26.5547 51.275 26.896C50.8483 26.512 50.4643 26.192 50.123 25.936C49.803 25.6587 49.483 25.4133 49.163 25.2C48.8643 24.9867 48.555 24.7947 48.235 24.624C47.9363 24.432 47.595 24.2293 47.211 24.016C47.2963 23.888 47.371 23.6 47.435 23.152C47.5203 22.704 47.595 22.16 47.659 21.52C47.723 20.88 47.7657 20.1973 47.787 19.472C47.8297 18.7253 47.851 18.0107 47.851 17.328C47.851 16.56 47.819 15.8987 47.755 15.344C47.7123 14.768 47.627 14.2773 47.499 13.872C47.371 13.4667 47.2003 13.136 46.987 12.88C46.795 12.6027 46.539 12.368 46.219 12.176L46.251 11.824ZM81.8118 28.656C81.9398 28.2293 82.0571 27.696 82.1638 27.056C82.2704 26.4373 82.3558 25.8187 82.4198 25.2C82.4838 24.56 82.5371 23.9733 82.5798 23.44C82.6224 22.9067 82.6438 22.5227 82.6438 22.288C82.6438 21.072 82.6331 19.856 82.6118 18.64C82.6118 17.424 82.6118 16.208 82.6118 14.992L82.1958 14.544L78.6118 16.08C78.5904 16.5493 78.5798 17.168 78.5798 17.936C78.5798 18.704 78.5798 19.4827 78.5798 20.272V23.184C78.5798 24.528 78.8678 25.3067 79.4438 25.52V26H73.7478V25.52C74.0038 25.4133 74.2064 25.2 74.3558 24.88C74.5264 24.5387 74.6118 24.0693 74.6118 23.472V14.992L74.1958 14.544L70.6438 16.08V23.184C70.6438 24.528 70.9318 25.3067 71.5078 25.52V26H65.6198V25.52C65.8758 25.4133 66.0784 25.2 66.2278 24.88C66.3984 24.5387 66.4838 24.0693 66.4838 23.472V12.304L65.2998 11.792V11.44C66.0464 11.3333 66.8571 11.1947 67.7318 11.024C68.6064 10.832 69.3851 10.6507 70.0678 10.48L70.6438 11.44V14.064C71.4758 13.4667 72.2224 12.88 72.8838 12.304C73.5664 11.7067 74.2598 11.0027 74.9638 10.192C75.3264 10.5333 75.6571 10.8427 75.9558 11.12C76.2544 11.376 76.5531 11.6107 76.8518 11.824C77.1718 12.0373 77.5024 12.2507 77.8438 12.464C78.1851 12.656 78.5798 12.8587 79.0278 13.072L78.8358 13.936C79.6251 13.36 80.3398 12.784 80.9798 12.208C81.6198 11.632 82.2811 10.96 82.9638 10.192C83.3264 10.5333 83.6571 10.8427 83.9558 11.12C84.2544 11.376 84.5531 11.6107 84.8518 11.824C85.1718 12.0373 85.5024 12.2507 85.8438 12.464C86.1851 12.656 86.5798 12.8587 87.0278 13.072C86.9424 13.3707 86.8678 13.6907 86.8038 14.032C86.7611 14.352 86.7184 14.768 86.6758 15.28C86.6544 15.792 86.6331 16.4213 86.6118 17.168C86.5904 17.9147 86.5798 18.8427 86.5798 19.952C86.5798 20.8907 86.5798 21.6693 86.5798 22.288C86.6011 22.8853 86.6224 23.376 86.6438 23.76C86.6651 24.144 86.6971 24.464 86.7398 24.72C86.7824 24.9547 86.8251 25.1787 86.8678 25.392C86.4411 25.5413 86.0038 25.744 85.5558 26C85.1291 26.256 84.6918 26.544 84.2438 26.864C83.8171 27.184 83.4118 27.5147 83.0278 27.856C82.6438 28.1973 82.3024 28.528 82.0038 28.848L81.8118 28.656ZM97.677 27.024C97.2717 26.7253 96.7703 26.448 96.173 26.192C95.5757 25.936 94.957 25.7227 94.317 25.552C93.6983 25.36 93.0903 25.2107 92.493 25.104C91.917 24.9973 91.437 24.944 91.053 24.944C91.2237 24.6667 91.373 24.2827 91.501 23.792C91.629 23.28 91.725 22.736 91.789 22.16C91.8743 21.5627 91.9277 20.9547 91.949 20.336C91.9917 19.7173 92.013 19.152 92.013 18.64C92.013 17.3387 91.9277 16.2613 91.757 15.408C91.6077 14.5333 91.4583 13.8507 91.309 13.36C92.2263 13.1893 93.0583 12.8587 93.805 12.368C94.573 11.8773 95.3303 11.2587 96.077 10.512C96.9517 10.6827 98.029 10.832 99.309 10.96C100.589 11.0667 101.858 11.1413 103.117 11.184C103.053 11.568 103.021 12.048 103.021 12.624C103.021 13.072 103.042 13.5627 103.085 14.096C103.128 14.608 103.181 15.12 103.245 15.632C103.309 16.144 103.394 16.6347 103.501 17.104C103.608 17.5733 103.725 17.9787 103.853 18.32C102.552 18.4267 101.229 18.576 99.885 18.768C98.541 18.9387 97.229 19.1307 95.949 19.344C95.9277 19.9627 95.885 20.5707 95.821 21.168C95.757 21.7653 95.7037 22.288 95.661 22.736C95.917 22.8427 96.237 22.9387 96.621 23.024C97.0263 23.1093 97.453 23.1947 97.901 23.28C98.349 23.344 98.7863 23.408 99.213 23.472C99.6397 23.5147 100.002 23.5467 100.301 23.568C100.408 22.9067 100.664 22.3413 101.069 21.872C101.496 21.4027 102.21 21.0187 103.213 20.72C103.192 20.976 103.181 21.232 103.181 21.488C103.181 21.7227 103.181 21.9573 103.181 22.192C103.181 22.9173 103.202 23.4933 103.245 23.92C103.309 24.3253 103.416 24.7307 103.565 25.136C103.16 25.1787 102.68 25.264 102.125 25.392C101.57 25.4987 101.016 25.648 100.461 25.84C99.9063 26.0107 99.373 26.192 98.861 26.384C98.3703 26.5973 97.9757 26.8107 97.677 27.024ZM95.629 13.392C95.7357 14.288 95.8103 15.0773 95.853 15.76C95.917 16.4427 95.9597 17.072 95.981 17.648L99.725 16.72C99.6183 16.2933 99.5223 15.8453 99.437 15.376C99.373 14.9067 99.341 14.4267 99.341 13.936C98.8503 13.936 98.253 13.8933 97.549 13.808C96.8663 13.7013 96.2263 13.5627 95.629 13.392Z" fill="#0E0B07"/>
</svg>
